<svg xmlns="http://www.w3.org/2000/svg" xmlns:xlink="http://www.w3.org/1999/xlink" width="4835" height="570" viewBox="0 0 4835 570"><defs><style>.a{clip-path:url(#l);}.b,.c,.m,.t{fill:#fff;}.c,.d,.m,.n,.z{stroke-linejoin:round;}.d,.i{fill:#cf8f13;}.e,.h,.l{fill:#ededed;}.e,.n,.o,.q,.t,.v,.z{stroke:#707070;}.e,.n,.o,.q,.t,.v{stroke-width:6px;}.f{fill:#878787;}.g{fill:#e4e4e4;}.h{opacity:0;}.j{fill:#c6c6c6;}.ac,.k,.q,.v,.y,.z{fill:none;}.m,.n{stroke-linecap:square;}.n{fill:#e59d12;}.o{fill:#78a029;}.o,.q,.z{stroke-linecap:round;}.p{fill:#62841f;}.r{fill:#ffafd2;}.s{fill:rgba(112,112,112,0.61);}.u{fill:#845b12;}.w{fill:#fdf581;}.x{fill:#b1a74b;}.y{stroke:#d3ad6c;stroke-width:10px;}.z{stroke-width:11px;}.aa,.ab{stroke:none;}.ab{fill:#707070;}.ad{filter:url(#i);}.ae{filter:url(#g);}.af{filter:url(#e);}.ag{filter:url(#c);}.ah{filter:url(#a);}</style><filter id="a" x="3576.282" y="803.344" width="86.393" height="144.169" filterUnits="userSpaceOnUse"><feOffset dx="6" dy="5" input="SourceAlpha"/><feGaussianBlur result="b"/><feFlood flood-color="#845b12"/><feComposite operator="in" in2="b"/><feComposite in="SourceGraphic"/></filter><filter id="c" x="3593.976" y="793.321" width="53.553" height="54.651" filterUnits="userSpaceOnUse"><feOffset dx="5" dy="4" input="SourceAlpha"/><feGaussianBlur result="d"/><feFlood flood-color="#845b12"/><feComposite operator="in" in2="d"/><feComposite in="SourceGraphic"/></filter><filter id="e" x="3538.086" y="524.6" width="49.522" height="34.025" filterUnits="userSpaceOnUse"><feOffset dx="-5" dy="2" input="SourceAlpha"/><feGaussianBlur result="f"/><feFlood flood-color="#c6c6c6"/><feComposite operator="in" in2="f"/><feComposite in="SourceGraphic"/></filter><filter id="g" x="3512.529" y="544.127" width="39.149" height="34.025" filterUnits="userSpaceOnUse"><feOffset dx="-4" dy="2" input="SourceAlpha"/><feGaussianBlur result="h"/><feFlood flood-color="#c6c6c6"/><feComposite operator="in" in2="h"/><feComposite in="SourceGraphic"/></filter><filter id="i" x="3498.688" y="571.466" width="35.806" height="32.244" filterUnits="userSpaceOnUse"><feOffset dx="-3" dy="1" input="SourceAlpha"/><feGaussianBlur result="j"/><feFlood flood-color="#c6c6c6"/><feComposite operator="in" in2="j"/><feComposite in="SourceGraphic"/></filter><clipPath id="l"><rect width="4835" height="570"/></clipPath></defs><g id="k" class="a"><path class="b" d="M215.76-30.38A104.467,104.467,0,0,1,179.8-3.875Q158.41,5.89,130.51,5.89A128.6,128.6,0,0,1,83.545-2.48,110.327,110.327,0,0,1,46.19-26.2,109.828,109.828,0,0,1,21.39-62.93Q12.4-84.32,12.4-110.05q0-26.35,9.145-47.74A106.2,106.2,0,0,1,46.81-194.215a111.9,111.9,0,0,1,37.82-23.1,133.384,133.384,0,0,1,46.81-8.06,132.261,132.261,0,0,1,45.725,8.215q22.475,8.215,36.425,24.025l-35.96,35.96a44.508,44.508,0,0,0-19.53-15.19,64.774,64.774,0,0,0-24.8-4.96,62.809,62.809,0,0,0-25.575,5.115,59.994,59.994,0,0,0-20,14.1,64.257,64.257,0,0,0-13.02,21.235,74.948,74.948,0,0,0-4.65,26.815,77.13,77.13,0,0,0,4.65,27.28A63.524,63.524,0,0,0,87.575-61.535,57.931,57.931,0,0,0,107.26-47.74a62.59,62.59,0,0,0,25.11,4.96q15.81,0,27.59-6.2A53.5,53.5,0,0,0,178.87-65.1ZM424.39-82.77a94.455,94.455,0,0,1-6.665,36.115,78.5,78.5,0,0,1-19.065,27.9A87.921,87.921,0,0,1,368.745-.62q-17.515,6.51-38.9,6.51-21.7,0-39.06-6.51a84.85,84.85,0,0,1-29.45-18.135,78.734,78.734,0,0,1-18.6-27.9,96.439,96.439,0,0,1-6.51-36.115V-219.48h52.7V-87.11a61.228,61.228,0,0,0,2.325,17.05,43.776,43.776,0,0,0,7.13,14.415,33.438,33.438,0,0,0,12.71,10.075q7.9,3.72,19.065,3.72t19.065-3.72A34.789,34.789,0,0,0,362.08-55.645a40.112,40.112,0,0,0,7.13-14.415,65.328,65.328,0,0,0,2.17-17.05V-219.48h53.01ZM467.17,0V-219.48h53.32V0ZM681.69-162.44a47.853,47.853,0,0,0-17.825-13.795,50.289,50.289,0,0,0-21.235-5.115,63.215,63.215,0,0,0-10.7.93,27.611,27.611,0,0,0-9.765,3.565,24.142,24.142,0,0,0-7.285,6.82,18.159,18.159,0,0,0-2.945,10.7,17.246,17.246,0,0,0,2.325,9.3,20.7,20.7,0,0,0,6.82,6.51,60.786,60.786,0,0,0,10.7,5.115q6.2,2.325,13.95,4.805,11.16,3.72,23.25,8.215a86.953,86.953,0,0,1,22.01,11.935,62.65,62.65,0,0,1,16.43,18.445q6.51,11.005,6.51,27.435,0,18.91-6.975,32.705A65.22,65.22,0,0,1,688.2-12.09,80.367,80.367,0,0,1,661.23,1.24a113.408,113.408,0,0,1-31.31,4.34,129.286,129.286,0,0,1-45.57-8.215Q562.34-10.85,547.77-26.04l34.72-35.34A64.156,64.156,0,0,0,603.725-44.8a57.633,57.633,0,0,0,26.2,6.665,52.716,52.716,0,0,0,11.47-1.24,28.612,28.612,0,0,0,9.765-4.03,20.178,20.178,0,0,0,6.665-7.44A23.42,23.42,0,0,0,660.3-62a17.658,17.658,0,0,0-3.1-10.54,30.284,30.284,0,0,0-8.835-7.905,71.161,71.161,0,0,0-14.26-6.51Q625.58-89.9,614.73-93.31a185.157,185.157,0,0,1-20.615-8.06,69,69,0,0,1-17.98-11.935,55.275,55.275,0,0,1-12.71-17.67q-4.8-10.385-4.8-25.265,0-18.29,7.44-31.31a64.674,64.674,0,0,1,19.53-21.39,83.9,83.9,0,0,1,27.28-12.245,123.69,123.69,0,0,1,30.69-3.875,113.943,113.943,0,0,1,37.975,6.82,97.775,97.775,0,0,1,33.945,20.15ZM748.96,0V-219.48h53.32V0ZM987.04,0,898.69-143.53h-.93L899,0H847.54V-219.48h60.45L996.03-76.26h.93l-1.24-143.22h51.46V0Zm105.4,0V-219.48H1240v44.64h-96.41v41.54h91.14v42.47h-91.14v45.57h101.99V0Z" transform="translate(403 394)"/><path class="b" d="M211.392-102.528q0,26.784-9.936,46.224a93.186,93.186,0,0,1-26.208,31.968A109.267,109.267,0,0,1,138.528-5.9,148.791,148.791,0,0,1,97.056,0H21.024V-203.9H94.752a182.214,182.214,0,0,1,42.624,5.04,106.976,106.976,0,0,1,37.44,16.7q16.416,11.664,26.5,31.248T211.392-102.528Zm-51.264,0q0-17.28-5.616-28.656a48.243,48.243,0,0,0-14.976-18.144,59.907,59.907,0,0,0-21.312-9.648,104.745,104.745,0,0,0-24.624-2.88H69.12V-42.624H92.448a105.89,105.89,0,0,0,25.488-3.024,60.249,60.249,0,0,0,21.6-9.936,49.221,49.221,0,0,0,14.976-18.432Q160.128-85.536,160.128-102.528ZM243.936,0V-203.9H381.024v41.472H291.456v38.592h84.672v39.456H291.456v42.336h94.752V0Z" transform="matrix(0.995, -0.105, 0.105, 0.995, 1714.45, 409.234)"/><path class="b" d="M201.474-12.341A156.146,156.146,0,0,1,166.6.287a182.808,182.808,0,0,1-43.48,4.879A126.169,126.169,0,0,1,78.208-2.583,103.648,103.648,0,0,1,42.907-24.4,99.453,99.453,0,0,1,19.8-58.118q-8.323-19.66-8.323-43.767,0-24.395,8.467-44.2a98.319,98.319,0,0,1,23.39-33.722,103.6,103.6,0,0,1,35.014-21.382,123.488,123.488,0,0,1,43.337-7.462,133.194,133.194,0,0,1,44.772,7.318q20.664,7.319,33.579,19.66l-31,35.3A53.651,53.651,0,0,0,150.1-160a64.228,64.228,0,0,0-26.691-5.31,59.164,59.164,0,0,0-23.821,4.736,57.274,57.274,0,0,0-18.942,13.2,59.922,59.922,0,0,0-12.484,20.09,70.493,70.493,0,0,0-4.449,25.4,79.494,79.494,0,0,0,4.018,25.83,55.587,55.587,0,0,0,11.91,20.234,54.2,54.2,0,0,0,19.516,13.2,69.887,69.887,0,0,0,26.548,4.736,99.465,99.465,0,0,0,16.359-1.292,61,61,0,0,0,14.35-4.162V-80.36H117.67v-39.606h83.8ZM241.654,0V-203.2H378.266v41.328H289.009v38.458h84.378v39.319H289.009V-41.9h94.423V0ZM415.863,0V-203.2H552.475v41.328H463.218v38.458H547.6v39.319H463.218V-41.9h94.423V0ZM714.056,0,638.575-93.562H638V0H590.072V-203.2H638v82.656h.861L711.473-203.2h61.418l-87.535,93.562L778.057,0Z" transform="translate(2154 396)"/><g transform="translate(2868.84 -329.274)"><g transform="translate(896.822 499.753)"><g class="c" transform="translate(706.055 -3904.17)"><path class="aa" d="M -709.7234497070313 4549.78564453125 L -709.0318603515625 4544.22705078125 L -689.50732421875 4387.3076171875 L -689.319580078125 4385.79931640625 L -687.9923095703125 4385.05859375 L -596.58056640625 4334.0380859375 L -650.4331665039063 4036.771484375 L -650.7769165039063 4034.873779296875 L -649.193359375 4033.773193359375 C -648.9270629882813 4033.588134765625 -642.478515625 4029.138916015625 -625.601318359375 4020.234130859375 C -615.7440185546875 4015.033203125 -604.3350830078125 4009.373779296875 -591.6912841796875 4003.41259765625 C -575.9035034179688 3995.968994140625 -558.1300048828125 3988.029296875 -538.8645629882813 3979.81396484375 C -519.531005859375 3971.56982421875 -499.6750793457031 3964.3740234375 -479.8482971191406 3958.427001953125 C -463.9817504882813 3953.667724609375 -448.0963745117188 3949.6923828125 -432.633544921875 3946.611328125 C -418.8611450195313 3943.8671875 -407.9738464355469 3942.35400390625 -401.2657775878906 3941.56787109375 C -393.956298828125 3940.71142578125 -389.9541625976563 3940.509521484375 -389.7873840332031 3940.50146484375 L -389.0140686035156 3940.463623046875 L -388.3190002441406 3940.8046875 L -312.7965393066406 3977.862548828125 L -310.3410034179688 3979.0673828125 L -311.3145446777344 3981.62353515625 L -354.3413696289063 4094.595703125 L -354.7382202148438 4095.6376953125 L -355.7192993164063 4096.16748046875 C -355.8876037597656 4096.25830078125 -372.7446899414063 4105.3623046875 -389.4609069824219 4114.38037109375 C -413.8600463867188 4127.54345703125 -420.8687744140625 4131.30615234375 -422.9787902832031 4132.42138671875 C -424.8004760742188 4135.34326171875 -432.4197082519531 4147.73828125 -443.3687744140625 4167.93701171875 C -450.7404479980469 4181.53662109375 -458.1568298339844 4195.96044921875 -465.4119873046875 4210.8076171875 C -474.4800720214844 4229.365234375 -483.3203125 4248.64013671875 -491.6870727539063 4268.09814453125 C -500.0020751953125 4287.435546875 -507.0504455566406 4306.17138671875 -512.636474609375 4323.78515625 C -517.1043701171875 4337.87353515625 -520.6519165039063 4351.27978515625 -523.1805419921875 4363.63134765625 C -525.4298706054688 4374.61767578125 -526.4395141601563 4382.7177734375 -526.8904418945313 4387.57861328125 C -527.37890625 4392.84375 -527.3351440429688 4395.5458984375 -527.334716796875 4395.57275390625 L -527.2926635742188 4397.56689453125 L -529.1156005859375 4398.3740234375 L -612.0621337890625 4435.23974609375 L -616.2852172851563 4501.40087890625 L -616.3950805664063 4503.1220703125 L -617.9375610351563 4503.89306640625 L -704.713134765625 4547.2802734375 L -709.7234497070313 4549.78564453125 Z"/><path class="ab" d="M -389.6405639648438 3943.498046875 C -389.6405639648438 3943.498046875 -453.3760375976563 3946.62109375 -537.687744140625 3982.5732421875 C -621.9994506835938 4018.5263671875 -647.4813232421875 4036.236328125 -647.4813232421875 4036.236328125 L -593.2464599609375 4335.61279296875 L -686.5302734375 4387.67822265625 L -706.0548095703125 4544.59716796875 L -619.2791748046875 4501.2099609375 L -614.9403686523438 4433.23583984375 L -530.3341064453125 4395.63232421875 C -530.3341064453125 4395.63232421875 -531.241455078125 4352.49072265625 -494.4430541992188 4266.9130859375 C -457.6446533203125 4181.3349609375 -425.0908813476563 4130.14306640625 -425.0908813476563 4130.14306640625 C -424.4706420898438 4129.88916015625 -357.1449584960938 4093.52783203125 -357.1449584960938 4093.52783203125 L -314.1181030273438 3980.5556640625 L -389.6405639648438 3943.498046875 M -389.6406860351563 3937.498046875 C -388.7255859375 3937.498046875 -387.8212890625 3937.70751953125 -386.9974365234375 3938.111328125 L -311.4750366210938 3975.1689453125 C -308.6924438476563 3976.53466796875 -307.4078979492188 3979.794921875 -308.5110473632813 3982.69140625 L -351.5379028320313 4095.66357421875 C -352.0498657226563 4097.0078125 -353.0279541015625 4098.12353515625 -354.293701171875 4098.80712890625 C -402.4243774414063 4124.8017578125 -416.55859375 4132.39990234375 -420.8473510742188 4134.677734375 C -426.1161499023438 4143.2080078125 -455.9755859375 4192.64208984375 -488.9310302734375 4269.283203125 C -524.6156005859375 4352.2705078125 -524.3421630859375 4395.09716796875 -524.335205078125 4395.52001953125 C -524.2957153320313 4397.9267578125 -525.6978759765625 4400.1376953125 -527.8972778320313 4401.115234375 L -609.1839599609375 4437.2431640625 L -613.2913818359375 4501.591796875 C -613.427490234375 4503.7236328125 -614.6859130859375 4505.62158203125 -616.595947265625 4506.576171875 L -703.37158203125 4549.9638671875 C -704.2197875976563 4550.3876953125 -705.138916015625 4550.59716796875 -706.05419921875 4550.59716796875 C -707.27392578125 4550.59716796875 -708.4869384765625 4550.2255859375 -709.5188598632813 4549.49609375 C -711.3250732421875 4548.21875 -712.2820434570313 4546.0517578125 -712.0089111328125 4543.8564453125 L -692.484375 4386.9375 C -692.2484130859375 4385.041015625 -691.1231689453125 4383.3701171875 -689.4544677734375 4382.43896484375 L -599.9146728515625 4332.46337890625 L -653.3851928710938 4037.30615234375 C -653.8040771484375 4034.994140625 -652.8348388671875 4032.650390625 -650.905517578125 4031.3095703125 C -649.844482421875 4030.57177734375 -623.953857421875 4012.8369140625 -540.0411987304688 3977.05419921875 C -455.7116088867188 3941.09423828125 -392.5803833007813 3937.634765625 -389.9342041015625 3937.50537109375 C -389.8363037109375 3937.50048828125 -389.7384033203125 3937.498046875 -389.6406860351563 3937.498046875 Z"/></g><g class="d" transform="translate(609.851 -3888.248)"><path class="aa" d="M -315.2991943359375 4109.57177734375 L -311.7118530273438 4102.560546875 L -278.4144897460938 4037.47900390625 L -357.7596740722656 4055.178955078125 L -368.6744995117188 4057.61376953125 L -360.4437866210938 4050.04296875 L -289.5143127441406 3984.800048828125 L -371.8215637207031 3996.30517578125 L -373.7829895019531 3990.76318359375 L -286.5443420410156 3938.2978515625 L -316.4671936035156 3933.09375 L -316.9090576171875 3927.29443359375 C -269.2784729003906 3911.283447265625 -231.7482604980469 3899.633056640625 -205.3610382080078 3892.6669921875 C -186.7124633789063 3887.743896484375 -173.9832305908203 3885.247802734375 -167.5269622802734 3885.247802734375 C -166.109130859375 3885.247802734375 -164.9848022460938 3885.36767578125 -164.0897369384766 3885.6142578125 C -162.9671936035156 3885.923583984375 -162.1146392822266 3886.46728515625 -161.5556640625 3887.230224609375 C -161.1842346191406 3887.737060546875 -160.9612274169922 3888.32373046875 -160.8988342285156 3888.920166015625 L -149.7834320068359 3934.36279296875 L -149.2673950195313 3936.47265625 L -151.1105346679688 3937.62158203125 L -190.7203369140625 3962.313232421875 L -138.5315704345703 3956.778076171875 L -135.7989349365234 3956.488037109375 L -135.2710266113281 3959.18505859375 L -120.1304016113281 4036.53369140625 L -119.6171646118164 4039.155517578125 L -122.1623992919922 4039.9677734375 L -199.4238433837891 4064.6259765625 L -307.9562377929688 4106.7236328125 L -315.2991943359375 4109.57177734375 Z"/><path class="ab" d="M -167.5269775390625 3888.247802734375 C -176.5626831054688 3888.247802734375 -207.8647766113281 3893.803955078125 -315.9531860351563 3930.13818359375 L -278.1015625 3936.72119140625 L -372.2368774414063 3993.333984375 L -280.4055786132813 3980.49755859375 L -358.412841796875 4052.2509765625 L -272.8352661132813 4033.16064453125 L -309.0411376953125 4103.9267578125 L -200.4234619140625 4061.7958984375 L -123.0745544433594 4037.10986328125 L -138.2152099609375 3959.76123046875 L -203.3858032226563 3966.67333984375 L -152.6975402832031 3935.07568359375 L -163.888427734375 3889.32421875 C -163.888427734375 3889.32421875 -163.548095703125 3888.247802734375 -167.5269775390625 3888.247802734375 M -167.5269775390625 3882.248046875 C -164.7147827148438 3882.248046875 -161.2195739746094 3882.61279296875 -159.1355895996094 3885.45703125 C -158.6253662109375 3886.15380859375 -158.2610168457031 3887.006591796875 -158.0679016113281 3887.900390625 L -158.0602416992188 3887.898681640625 L -146.8693542480469 3933.650146484375 C -146.2535400390625 3936.167724609375 -147.323974609375 3938.796142578125 -149.5234985351563 3940.16748046875 L -178.0548400878906 3957.953125 L -138.8480224609375 3953.794677734375 C -138.6337585449219 3953.77197265625 -138.4206848144531 3953.7607421875 -138.2095947265625 3953.7607421875 C -135.3736267089844 3953.7607421875 -132.8830261230469 3955.767822265625 -132.3269348144531 3958.608642578125 L -117.186279296875 4035.957275390625 C -116.6011657714844 4038.946533203125 -118.3485717773438 4041.899658203125 -121.2502746582031 4042.825927734375 L -198.5992126464844 4067.511962890625 L -306.871337890625 4109.5205078125 C -307.5770263671875 4109.79443359375 -308.3119506835938 4109.9267578125 -309.039794921875 4109.9267578125 C -310.7060241699219 4109.9267578125 -312.3356628417969 4109.232421875 -313.496337890625 4107.9453125 C -315.1639709472656 4106.0966796875 -315.5166015625 4103.41015625 -314.3826293945313 4101.19384765625 L -283.9937133789063 4041.79736328125 L -357.1065063476563 4058.10693359375 C -357.5428466796875 4058.204345703125 -357.9811096191406 4058.25146484375 -358.4142761230469 4058.25146484375 C -360.611572265625 4058.25146484375 -362.6799926757813 4057.0400390625 -363.73046875 4055.030029296875 C -364.9879760742188 4052.623779296875 -364.4730224609375 4049.673095703125 -362.4747924804688 4047.8349609375 L -298.6231689453125 3989.102294921875 L -371.4062805175781 3999.276123046875 C -371.6860046386719 3999.3154296875 -371.9646606445313 3999.33447265625 -372.2406005859375 3999.33447265625 C -374.7501220703125 3999.33447265625 -377.0360107421875 3997.757568359375 -377.89306640625 3995.3359375 C -378.8444213867188 3992.64794921875 -377.7726135253906 3989.66162109375 -375.3291625976563 3988.192138671875 L -294.9870300292969 3939.87451171875 L -316.9812622070313 3936.049560546875 C -319.6865844726563 3935.578857421875 -321.7272338867188 3933.33203125 -321.9358520507813 3930.593994140625 C -322.1444702148438 3927.85595703125 -320.4677734375 3925.325927734375 -317.864990234375 3924.450927734375 C -235.7310791015625 3896.84130859375 -183.7450561523438 3882.248046875 -167.5269775390625 3882.248046875 Z"/></g></g><g transform="translate(293.478 800.525)"><path class="e" d="M-1471.807,4650.449s-1.212-62.774,0-56.719,13.663,13.663,13.663,13.663l-9.082-19.061s-2.021-9.769,11.929-26.483,155.416-212.913,155.416-212.913l337.587-38.143,22.772,38.143s30.457,64.1,33.019,139.475-22.771,162.037-22.771,162.037l-300.01,26.947Z" transform="translate(1530.238 -4310.794)"/><g transform="translate(229.236 202.539)"><ellipse class="f" cx="13.279" cy="12.888" rx="13.279" ry="12.888" transform="translate(35.149 0)"/><ellipse class="f" cx="12.888" cy="13.279" rx="12.888" ry="13.279" transform="translate(16.403 37.493)"/><ellipse class="f" cx="12.888" cy="13.279" rx="12.888" ry="13.279" transform="translate(0 78.891)"/></g><path class="f" d="M694.688,1332.481c-2.276,7.062,22.914-86.4,74.576-159.79s132.643-131.5,132.643-131.5,128.658-25.048,104.748-17.078-70.591,59.774-70.591,59.774l-105.887,78.561s4.75,15.847,4.351,23.023c-1.026,2.8-27.506,24.118-65.264,63.982C733.871,1288.118,695.9,1328.724,694.688,1332.481Z" transform="translate(-440.984 -992.826)"/><g transform="translate(0 16.238)"><g class="g" transform="translate(156.516 0) rotate(40)"><path class="aa" d="M 58.72040939331055 240.4960021972656 C 54.57451629638672 240.4960021972656 50.4958381652832 239.4073638916016 46.59769439697266 237.2603607177734 C 42.88666152954102 235.2164306640625 39.24062347412109 232.1667785644531 35.76083755493164 228.1961364746094 C 29.4727668762207 221.0210723876953 23.67487525939941 210.8493194580078 18.52816009521484 197.9634704589844 C 13.27866077423096 184.8201751708984 9.83583927154541 171.6163635253906 7.87208890914917 162.8541412353516 C 5.669124603271484 153.0246429443359 4.078374862670898 143.1998596191406 3.616803169250488 136.5728607177734 C 2.722338914871216 123.7306060791016 2.968981742858887 109.9747467041016 3.333374738693237 100.6964263916016 C 3.729303359985352 90.61550140380859 4.346196174621582 83.49317932128906 4.352410316467285 83.42239379882813 L 4.363803386688232 83.29203796386719 L 4.363803386688232 83.16107177734375 C 4.363803386688232 79.99407196044922 4.731910228729248 76.35107421875 5.457839012145996 72.33321380615234 C 6.18130350112915 68.32913970947266 7.243089199066162 64.04799652099609 8.61366081237793 59.608642578125 C 11.45066070556641 50.41949844360352 15.40305328369141 41.17421340942383 20.04358863830566 32.87228393554688 C 25.03298187255859 23.94632148742676 30.62544631958008 16.51799964904785 36.21644592285156 11.3903923034668 C 39.19015884399414 8.663106918334961 42.17573165893555 6.567999839782715 45.09030151367188 5.163249969482422 C 48.06840896606445 3.727821111679077 51.0089111328125 2.999999761581421 53.8300895690918 2.999999761581421 C 60.42126846313477 2.999999761581421 67.40012359619141 3.879714012145996 74.01212310791016 5.5440354347229 C 80.9002685546875 7.277892589569092 87.39226531982422 9.873642921447754 92.78623199462891 13.05067825317383 C 101.2975540161133 18.06385612487793 111.4434127807617 27.03000068664551 111.4434127807617 41.2755012512207 L 111.4434127807617 41.2928581237793 L 111.4436264038086 41.31021499633789 L 113.1447982788086 188.2934875488281 C 113.1439895629883 195.5845336914063 112.5886459350586 201.2406311035156 111.3972320556641 206.092529296875 C 110.0605163574219 211.5363159179688 107.8667678833008 216.0832824707031 104.6906280517578 219.9932861328125 C 101.2026214599609 224.2871398925781 96.47141265869141 227.9181823730469 90.22655487060547 231.0938568115234 C 83.50865936279297 234.5100708007813 75.14230346679688 237.3563232421875 64.64944458007813 239.7951812744141 C 62.64869689941406 240.2602081298828 60.65387344360352 240.4960021972656 58.72040939331055 240.4960021972656 Z"/><path class="ab" d="M 53.830078125 5.999984741210938 C 31.97930908203125 5.999984741210938 7.363807678222656 56.33663940429688 7.340965270996094 83.68399047851563 C 7.316459655761719 83.96401977539063 4.910575866699219 111.9710998535156 6.609542846679688 136.3644104003906 C 8.614349365234375 165.148681640625 27.05923461914063 237.4960174560547 58.72038650512695 237.4960174560547 C 60.42550277709961 237.4960174560547 62.19181060791016 237.2864532470703 63.97023010253906 236.8730621337891 C 106.8326187133789 226.9105224609375 110.1448059082031 210.4474792480469 110.1451950073242 188.3468017578125 L 108.4433822631836 41.27552795410156 C 108.4433822631836 17.21128845214844 75.85481262207031 5.999984741210938 53.830078125 5.999984741210938 M 53.830078125 -1.52587890625e-05 C 80.95545959472656 -1.52587890625e-05 114.4433822631836 14.150146484375 114.4433822631836 41.27552795410156 L 116.1448059082031 188.2773742675781 C 116.1448059082031 215.4027099609375 108.7484588623047 232.6251831054688 65.32861328125 242.7173004150391 C 63.06274795532227 243.2439422607422 60.85703277587891 243.4960021972656 58.72039794921875 243.4960021972656 C 19.91359710693359 243.4960021972656 2.284027099609375 160.61474609375 0.6240386962890625 136.7812957763672 C -1.127342224121094 111.6355590820313 1.363807678222656 83.16105651855469 1.363807678222656 83.16105651855469 C 1.363807678222656 56.03572082519531 26.70473480224609 -1.52587890625e-05 53.830078125 -1.52587890625e-05 Z"/></g><g class="h" transform="translate(156.516 0) rotate(40)"><path class="aa" d="M 58.72040939331055 240.4960021972656 C 54.57451629638672 240.4960021972656 50.4958381652832 239.4073638916016 46.59769439697266 237.2603607177734 C 42.88666152954102 235.2164306640625 39.24062347412109 232.1667785644531 35.76083755493164 228.1961364746094 C 29.4727668762207 221.0210723876953 23.67487525939941 210.8493194580078 18.52816009521484 197.9634704589844 C 13.27866077423096 184.8201751708984 9.83583927154541 171.6163635253906 7.87208890914917 162.8541412353516 C 5.669124603271484 153.0246429443359 4.078374862670898 143.1998596191406 3.616803169250488 136.5728607177734 C 2.722338914871216 123.7306060791016 2.968981742858887 109.9747467041016 3.333374738693237 100.6964263916016 C 3.729303359985352 90.61550140380859 4.346196174621582 83.49317932128906 4.352410316467285 83.42239379882813 L 4.363803386688232 83.29203796386719 L 4.363803386688232 83.16107177734375 C 4.363803386688232 79.99407196044922 4.731910228729248 76.35107421875 5.457839012145996 72.33321380615234 C 6.18130350112915 68.32913970947266 7.243089199066162 64.04799652099609 8.61366081237793 59.608642578125 C 11.45066070556641 50.41949844360352 15.40305328369141 41.17421340942383 20.04358863830566 32.87228393554688 C 25.03298187255859 23.94632148742676 30.62544631958008 16.51799964904785 36.21644592285156 11.3903923034668 C 39.19015884399414 8.663106918334961 42.17573165893555 6.567999839782715 45.09030151367188 5.163249969482422 C 48.06840896606445 3.727821111679077 51.0089111328125 2.999999761581421 53.8300895690918 2.999999761581421 C 60.42126846313477 2.999999761581421 67.40012359619141 3.879714012145996 74.01212310791016 5.5440354347229 C 80.9002685546875 7.277892589569092 87.39226531982422 9.873642921447754 92.78623199462891 13.05067825317383 C 101.2975540161133 18.06385612487793 111.4434127807617 27.03000068664551 111.4434127807617 41.2755012512207 L 111.4434127807617 41.2928581237793 L 111.4436264038086 41.31021499633789 L 113.1447982788086 188.2934875488281 C 113.1439895629883 195.5845336914063 112.5886459350586 201.2406311035156 111.3972320556641 206.092529296875 C 110.0605163574219 211.5363159179688 107.8667678833008 216.0832824707031 104.6906280517578 219.9932861328125 C 101.2026214599609 224.2871398925781 96.47141265869141 227.9181823730469 90.22655487060547 231.0938568115234 C 83.50865936279297 234.5100708007813 75.14230346679688 237.3563232421875 64.64944458007813 239.7951812744141 C 62.64869689941406 240.2602081298828 60.65387344360352 240.4960021972656 58.72040939331055 240.4960021972656 Z"/><path class="ab" d="M 53.830078125 5.999984741210938 C 31.97930908203125 5.999984741210938 7.363807678222656 56.33663940429688 7.340965270996094 83.68399047851563 C 7.316459655761719 83.96401977539063 4.910575866699219 111.9710998535156 6.609542846679688 136.3644104003906 C 8.614349365234375 165.148681640625 27.05923461914063 237.4960174560547 58.72038650512695 237.4960174560547 C 60.42550277709961 237.4960174560547 62.19181060791016 237.2864532470703 63.97023010253906 236.8730621337891 C 106.8326187133789 226.9105224609375 110.1448059082031 210.4474792480469 110.1451950073242 188.3468017578125 L 108.4433822631836 41.27552795410156 C 108.4433822631836 17.21128845214844 75.85481262207031 5.999984741210938 53.830078125 5.999984741210938 M 53.830078125 -1.52587890625e-05 C 80.95545959472656 -1.52587890625e-05 114.4433822631836 14.150146484375 114.4433822631836 41.27552795410156 L 116.1448059082031 188.2773742675781 C 116.1448059082031 215.4027099609375 108.7484588623047 232.6251831054688 65.32861328125 242.7173004150391 C 63.06274795532227 243.2439422607422 60.85703277587891 243.4960021972656 58.72039794921875 243.4960021972656 C 19.91359710693359 243.4960021972656 2.284027099609375 160.61474609375 0.6240386962890625 136.7812957763672 C -1.127342224121094 111.6355590820313 1.363807678222656 83.16105651855469 1.363807678222656 83.16105651855469 C 1.363807678222656 56.03572082519531 26.70473480224609 -1.52587890625e-05 53.830078125 -1.52587890625e-05 Z"/></g><path class="b" d="M498.485,1072.346s-5.384,10.85,13.339,66.237,24.072,47.071,24.072,47.071l66.543-65.777,5.826-22.539-13.953-30.665-22.079-18.4H553.376l-32.352,11.193Z" transform="translate(-384.274 -1016.48)"/><path class="i" d="M613.138,1122.371s-12.737-5.988-36.317-10.134-47.935,44.772-52.381,54.979,21.726,44.051,21.726,44.051l60.195-68.764,9.169-17.54Z" transform="translate(-397.509 -1028.436)"/><path class="j" d="M403.845,1247.372s64.262-15.029,64.78-43.532c.267-14.707-4.364-36.107-7.145-57.955-2.578-20.244,3.331-42.227,4.368-56.737,4.612-11.531,5.438,17.9,9.515,31.516,6.737,29.021,10.753,42.042,18.657,64.521s12.956,25.394,12.956,25.394l-35.24,44.309-21.507,10.106-31.872-5.96Z" transform="translate(-357.206 -1027.517)"/><g class="k" transform="translate(156.516 0) rotate(40)"><path class="aa" d="M53.83,0c27.125,0,60.613,14.15,60.613,41.276l1.7,147c0,27.125-7.4,44.348-50.816,54.44S2.375,161.927.624,136.781s.74-53.62.74-53.62C1.364,56.036,26.7,0,53.83,0Z"/><path class="ab" d="M 53.830078125 5.999984741210938 C 31.97930908203125 5.999984741210938 7.363807678222656 56.33663940429688 7.340965270996094 83.68399047851563 C 7.316459655761719 83.96401977539063 4.910575866699219 111.9710998535156 6.609542846679688 136.3644104003906 C 8.614349365234375 165.148681640625 27.05923461914063 237.4960174560547 58.72038650512695 237.4960174560547 C 60.42550277709961 237.4960174560547 62.19181060791016 237.2864532470703 63.97023010253906 236.8730621337891 C 106.8326187133789 226.9105224609375 110.1448059082031 210.4474792480469 110.1451950073242 188.3468017578125 L 108.4433822631836 41.27552795410156 C 108.4433822631836 17.21128845214844 75.85481262207031 5.999984741210938 53.830078125 5.999984741210938 M 53.830078125 -1.52587890625e-05 C 80.95545959472656 -1.52587890625e-05 114.4433822631836 14.150146484375 114.4433822631836 41.27552795410156 L 116.1448059082031 188.2773742675781 C 116.1448059082031 215.4027099609375 108.7484588623047 232.6251831054688 65.32861328125 242.7173004150391 C 63.06274795532227 243.2439422607422 60.85703277587891 243.4960021972656 58.72039794921875 243.4960021972656 C 19.91359710693359 243.4960021972656 2.284027099609375 160.61474609375 0.6240386962890625 136.7812957763672 C -1.127342224121094 111.6355590820313 1.363807678222656 83.16105651855469 1.363807678222656 83.16105651855469 C 1.363807678222656 56.03572082519531 26.70473480224609 -1.52587890625e-05 53.830078125 -1.52587890625e-05 Z"/></g><path class="j" d="M-1284.7,4520.162c50.529-13.733-16.318-18.939-16.318-18.939l-69.185,84.473s2.843,5.206,13.986,2.1,16.325-15.288,16.325-15.288S-1335.232,4533.9-1284.7,4520.162Z" transform="translate(1500.802 -4381.913)"/></g><path class="j" d="M948.319,1113.448c53.223-7.748,68.3-5.137,90.277,13.137,12.572,10.453,14.074,29.867,10.6,43.881a41.1,41.1,0,0,1-9.095,17s-11.612,22.327-53.718,20.306-75.112-37.3-75.112-37.3-10.071-6.828-10.779-12.127C898.586,1144.1,908.987,1119.173,948.319,1113.448Z" transform="translate(-509.528 -997.199)"/><path class="l" d="M953.042,1113.448c53.223-7.748,68.3-5.137,90.277,13.137s-2.358,59.96-2.358,59.96-7.748,23.243-49.854,21.222-70.4-19.538-70.4-19.538S899.819,1121.2,953.042,1113.448Z" transform="translate(-504.997 -1017.842)"/></g><g transform="translate(374.596 355.274)"><g class="m" transform="translate(1438.302 -3685.274)"><path class="aa" d="M -1133.478515625 4191.626953125 L -1133.8056640625 4191.6103515625 L -1358.550048828125 4180.23095703125 C -1358.723876953125 4180.23583984375 -1359.0400390625 4180.24267578125 -1359.479370117188 4180.24267578125 C -1362.598876953125 4180.24267578125 -1370.685180664063 4179.91552734375 -1378.379760742188 4176.88427734375 C -1385.190063476563 4174.20166015625 -1390.014526367188 4170.0458984375 -1392.672729492188 4164.650390625 L -1392.9990234375 4169.4287109375 L -1397.699462890625 4164.4970703125 C -1397.85302734375 4164.3359375 -1401.502319335938 4160.46923828125 -1405.041870117188 4153.48046875 C -1407.1044921875 4149.40771484375 -1408.720825195313 4145.08544921875 -1409.845703125 4140.634765625 C -1411.2509765625 4135.07421875 -1411.889038085938 4129.296875 -1411.742309570313 4123.46337890625 C -1411.738037109375 4123.2900390625 -1411.734130859375 4123.12060546875 -1411.730590820313 4122.9541015625 C -1412.234008789063 4124.50830078125 -1412.563598632813 4125.66015625 -1412.568115234375 4125.67626953125 L -1418.452392578125 4124.78564453125 C -1418.449951171875 4124.68212890625 -1418.209594726563 4114.32958984375 -1417.457885742188 4102.14306640625 C -1416.480712890625 4086.300537109375 -1415.128662109375 4074.749755859375 -1413.436889648438 4067.783447265625 C -1414.50830078125 4069.1689453125 -1415.305419921875 4070.329345703125 -1415.314453125 4070.3427734375 L -1420.480590820313 4067.3212890625 C -1420.449584960938 4067.258544921875 -1417.347900390625 4060.9560546875 -1414.27197265625 4054.1572265625 C -1413.089721679688 4051.544189453125 -1412.064453125 4049.197509765625 -1411.207641601563 4047.144287109375 C -1411.579223632813 4047.294921875 -1411.982666015625 4047.384033203125 -1412.428344726563 4047.384521484375 C -1412.429443359375 4047.384521484375 -1412.4306640625 4047.384521484375 -1412.431762695313 4047.384521484375 C -1413.5185546875 4047.384521484375 -1414.507202148438 4046.83447265625 -1415.077026367188 4045.91259765625 C -1415.915893554688 4044.5556640625 -1415.425659179688 4043.1171875 -1415.241088867188 4042.57568359375 C -1415.07177734375 4042.078857421875 -1414.818603515625 4041.46630859375 -1414.444458007813 4040.648193359375 C -1413.803955078125 4039.247802734375 -1412.877807617188 4037.399169921875 -1411.805419921875 4035.258544921875 C -1408.505493164063 4028.672119140625 -1403.518798828125 4018.71826171875 -1402.46728515625 4012.751953125 C -1401.629760742188 4007.99951171875 -1401.442993164063 4004.068359375 -1401.498413085938 4001.148681640625 L -1409.159057617188 4012.65869140625 L -1414.44970703125 4009.90185546875 C -1414.27734375 4009.462158203125 -1399.64697265625 3972.119140625 -1394.08056640625 3956.84228515625 C -1395.856567382813 3958.539306640625 -1397.308227539063 3960.0859375 -1397.323486328125 3960.102294921875 L -1402.392333984375 3957.209716796875 C -1402.0927734375 3956.18505859375 -1396.947143554688 3938.603759765625 -1392.758422851563 3925.791748046875 C -1393.00830078125 3926.10986328125 -1393.152465820313 3926.295654296875 -1393.157470703125 3926.302001953125 L -1400.1982421875 3935.377197265625 L -1398.49462890625 3924.01806640625 C -1398.48046875 3923.924072265625 -1397.071655273438 3914.493408203125 -1396.002807617188 3904.13427734375 C -1395.378540039063 3898.084228515625 -1394.990966796875 3892.911376953125 -1394.851196289063 3888.759521484375 C -1394.632690429688 3882.273193359375 -1395.077880859375 3879.719970703125 -1395.36279296875 3878.775390625 L -1395.419189453125 3878.58837890625 L -1395.450805664063 3878.3955078125 C -1395.997192382813 3875.070068359375 -1396.635986328125 3872.4560546875 -1397.349243164063 3870.6259765625 C -1397.71142578125 3869.697021484375 -1398.026245117188 3869.1455078125 -1398.246215820313 3868.829345703125 C -1398.687255859375 3869.278564453125 -1399.26318359375 3870.091064453125 -1399.605834960938 3870.788818359375 L -1399.601318359375 3870.779296875 L -1405.303466796875 3869.4853515625 C -1405.303588867188 3869.41650390625 -1405.326538085938 3862.509033203125 -1405.4765625 3855.243896484375 C -1405.606201171875 3848.964111328125 -1405.776000976563 3845.08056640625 -1405.930419921875 3842.685791015625 C -1405.976806640625 3842.742919921875 -1406.023681640625 3842.801025390625 -1406.071533203125 3842.86083984375 C -1407.07373046875 3844.112060546875 -1407.840087890625 3845.238037109375 -1407.847778320313 3845.249267578125 L -1413.316528320313 3843.28466796875 C -1413.311889648438 3843.234375 -1412.843017578125 3838.19580078125 -1412.511108398438 3832.561279296875 C -1412.231689453125 3827.818115234375 -1412.1591796875 3824.591064453125 -1412.184204101563 3822.3984375 C -1412.252319335938 3822.5068359375 -1412.321899414063 3822.618896484375 -1412.39306640625 3822.734375 C -1413.419555664063 3824.401611328125 -1414.19189453125 3825.904541015625 -1414.199584960938 3825.919677734375 L -1419.71630859375 3823.60546875 C -1419.70263671875 3823.563720703125 -1418.223754882813 3819.027099609375 -1417.297607421875 3811.81689453125 C -1416.755615234375 3807.59716796875 -1416.505859375 3803.298583984375 -1416.555541992188 3799.040771484375 C -1416.617309570313 3793.736572265625 -1417.146362304688 3788.48046875 -1418.128051757813 3783.41796875 C -1420.391357421875 3771.746826171875 -1425.518310546875 3758.79638671875 -1429.420776367188 3749.9873046875 C -1433.666748046875 3740.402587890625 -1437.403686523438 3733.550537109375 -1437.441040039063 3733.482666015625 L -1439.716430664063 3729.3232421875 L -1434.9833984375 3729.0478515625 C -1434.927124023438 3729.04443359375 -1434.407348632813 3729.015869140625 -1433.481811523438 3729.015869140625 C -1430.2578125 3729.015869140625 -1421.552124023438 3729.375 -1410.37060546875 3732.7021484375 C -1404.103759765625 3734.56689453125 -1397.964477539063 3737.093505859375 -1392.12353515625 3740.212158203125 C -1385.0810546875 3743.97216796875 -1378.396484375 3748.636474609375 -1372.255737304688 3754.0751953125 C -1371.885986328125 3754.40283203125 -1371.498046875 3754.758056640625 -1371.123046875 3755.101318359375 C -1370.53076171875 3755.643798828125 -1369.922607421875 3756.200439453125 -1369.344116210938 3756.6884765625 C -1369.4248046875 3755.42333984375 -1369.67138671875 3753.466552734375 -1370.28369140625 3750.48486328125 L -1364.927978515625 3748.1044921875 C -1357.984252929688 3757.55029296875 -1354.152587890625 3762.4462890625 -1349.803100585938 3766.487548828125 C -1345.424560546875 3770.55615234375 -1340.483764648438 3773.778076171875 -1331.514404296875 3779.62744140625 C -1323.46875 3784.874267578125 -1317.06005859375 3790.032958984375 -1312.466064453125 3794.959716796875 C -1309.860229492188 3797.75439453125 -1308.240356445313 3800.043212890625 -1307.235229492188 3801.777099609375 C -1306.496826171875 3801.35693359375 -1305.591552734375 3800.801025390625 -1304.795166015625 3800.31201171875 C -1300.45751953125 3797.6484375 -1293.902587890625 3793.623291015625 -1284.392578125 3790.569580078125 L -1284.097534179688 3790.474853515625 L -1283.789428710938 3790.442626953125 C -1283.056396484375 3790.365478515625 -1280.740844726563 3789.75634765625 -1275.0830078125 3785.778076171875 C -1271.286010742188 3783.1083984375 -1267.34423828125 3779.893310546875 -1264.466064453125 3777.5458984375 C -1263.28271484375 3776.58056640625 -1262.2607421875 3775.7470703125 -1261.492065429688 3775.150390625 C -1260.262451171875 3774.19580078125 -1259.449951171875 3773.61083984375 -1258.287963867188 3773.61083984375 C -1257.090698242188 3773.61083984375 -1256.001098632813 3774.3134765625 -1255.511840820313 3775.400634765625 C -1255.1923828125 3776.11083984375 -1254.995239257813 3777.23974609375 -1255.87060546875 3778.58447265625 C -1256.041259765625 3778.8466796875 -1256.270385742188 3779.1552734375 -1256.592041015625 3779.5556640625 C -1257.12939453125 3780.224853515625 -1257.966552734375 3781.2001953125 -1259.151245117188 3782.536865234375 C -1259.668701171875 3783.120361328125 -1260.011108398438 3783.581787109375 -1260.237182617188 3783.930419921875 C -1260.005737304688 3783.952392578125 -1259.724243164063 3783.966796875 -1259.384887695313 3783.966796875 C -1255.249755859375 3783.966796875 -1248.177124023438 3781.93115234375 -1241.366455078125 3778.78076171875 C -1233.302124023438 3775.05029296875 -1226.58056640625 3770.3056640625 -1222.440063476563 3765.4208984375 C -1220.271484375 3762.862548828125 -1218.627319335938 3761.020751953125 -1217.413452148438 3759.79052734375 C -1215.769775390625 3758.124267578125 -1214.67236328125 3757.2783203125 -1213.235961914063 3757.2783203125 C -1212.110961914063 3757.2783203125 -1211.096435546875 3757.8515625 -1210.52197265625 3758.8115234375 C -1209.668701171875 3760.237548828125 -1210.208740234375 3761.746826171875 -1210.439453125 3762.39111328125 C -1210.65283203125 3762.9873046875 -1210.982421875 3763.7431640625 -1211.447021484375 3764.70166015625 C -1212.251831054688 3766.3623046875 -1213.362182617188 3768.43212890625 -1214.537841796875 3770.62353515625 C -1215.665405273438 3772.7255859375 -1216.831420898438 3774.899169921875 -1217.740112304688 3776.7412109375 C -1217.764404296875 3776.790283203125 -1217.788208007813 3776.8388671875 -1217.811767578125 3776.88671875 C -1214.8779296875 3776.64013671875 -1209.939819335938 3776.261474609375 -1202.758422851563 3775.732666015625 C -1196.186401367188 3775.248779296875 -1172.835327148438 3773.31298828125 -1148.279541015625 3768.71875 C -1125.210327148438 3764.40283203125 -1108.95361328125 3759.15087890625 -1101.266967773438 3753.531005859375 C -1099.526733398438 3752.2587890625 -1098.17822265625 3751.33056640625 -1097.14453125 3750.693359375 C -1095.638916015625 3749.765380859375 -1094.739013671875 3749.42041015625 -1093.82421875 3749.42041015625 C -1093.227294921875 3749.42041015625 -1092.648681640625 3749.580322265625 -1092.151123046875 3749.883544921875 C -1091.4560546875 3750.306640625 -1090.959838867188 3750.974609375 -1090.754028320313 3751.763916015625 C -1090.5283203125 3752.62939453125 -1090.673217773438 3753.53466796875 -1091.184692382813 3754.454345703125 C -1091.377563476563 3754.80126953125 -1091.640625 3755.1904296875 -1091.9892578125 3755.64453125 C -1092.53076171875 3756.349853515625 -1093.2890625 3757.228759765625 -1094.307250976563 3758.3310546875 C -1096.474365234375 3760.67724609375 -1099.277099609375 3763.4443359375 -1101.246704101563 3765.3525390625 C -1101.968505859375 3766.052001953125 -1102.707763671875 3766.760986328125 -1103.44775390625 3767.46435546875 C -1103.046752929688 3767.3486328125 -1102.647216796875 3767.2333984375 -1102.25146484375 3767.119140625 C -1097.515991210938 3765.75244140625 -1092.148559570313 3764.203369140625 -1087.83154296875 3763.021728515625 C -1080.711181640625 3761.07275390625 -1079.337036132813 3760.90966796875 -1078.539672851563 3760.90966796875 C -1076.73095703125 3760.90966796875 -1075.649536132813 3762.11962890625 -1075.3798828125 3763.318603515625 C -1075.266479492188 3763.822998046875 -1075.04736328125 3765.564208984375 -1076.989013671875 3766.787841796875 C -1077.304809570313 3766.98681640625 -1077.710815429688 3767.2021484375 -1078.266967773438 3767.465576171875 C -1081.542846679688 3769.016845703125 -1083.567016601563 3770.730712890625 -1084.6884765625 3771.895263671875 C -1084.73779296875 3771.946533203125 -1084.785888671875 3771.997314453125 -1084.832885742188 3772.04736328125 C -1083.813720703125 3771.773193359375 -1082.582885742188 3771.4267578125 -1081.140258789063 3771.00048828125 C -1076.632934570313 3769.668212890625 -1071.62255859375 3768.017333984375 -1067.0322265625 3766.352294921875 C -1054.337280273438 3761.7470703125 -1045.382568359375 3757.291748046875 -1041.817626953125 3753.807373046875 C -1041.1455078125 3753.150390625 -1040.623901367188 3752.6650390625 -1040.223266601563 3752.3232421875 C -1039.723876953125 3751.897216796875 -1038.888061523438 3751.184326171875 -1037.65966796875 3751.184326171875 C -1036.478271484375 3751.184326171875 -1035.395263671875 3751.87548828125 -1034.900756835938 3752.9453125 C -1034.447265625 3753.926513671875 -1034.536254882813 3754.97705078125 -1035.16552734375 3756.067626953125 C -1035.324462890625 3756.34326171875 -1035.53466796875 3756.664306640625 -1035.827026367188 3757.078125 C -1036.293090820313 3757.7373046875 -1036.954711914063 3758.6123046875 -1037.849853515625 3759.7529296875 C -1039.300659179688 3761.6015625 -1041.3427734375 3764.1171875 -1043.919311523438 3767.22998046875 C -1044.653930664063 3768.1171875 -1045.3916015625 3769.00439453125 -1046.110229492188 3769.86572265625 C -1045.33056640625 3769.640625 -1044.5205078125 3769.412109375 -1043.685668945313 3769.18310546875 C -1034.228881835938 3766.589111328125 -1026.501220703125 3765.273681640625 -1020.717102050781 3765.273681640625 C -1017.968811035156 3765.273681640625 -1015.70556640625 3765.564208984375 -1013.798034667969 3766.16162109375 C -1011.358581542969 3766.92578125 -1009.546020507813 3768.201904296875 -1008.410583496094 3769.954833984375 C -1006.981506347656 3772.160888671875 -1006.727294921875 3774.925048828125 -1007.646606445313 3778.19873046875 C -1006.533386230469 3777.4541015625 -1005.121337890625 3776.448486328125 -1003.340942382813 3775.091064453125 C -999.3372802734375 3772.038818359375 -994.0343627929688 3767.64306640625 -987.5794067382813 3762.02587890625 C -975.5620727539063 3751.56787109375 -961.6364135742188 3738.726806640625 -949.3499755859375 3727.397216796875 C -942.1610107421875 3720.76806640625 -935.9522705078125 3715.04296875 -931.2496948242188 3710.83349609375 C -928.7299194335938 3708.578125 -926.8348388671875 3706.930908203125 -925.4562377929688 3705.798095703125 C -923.1832885742188 3703.930419921875 -922.2144165039063 3703.308837890625 -920.9569091796875 3703.308837890625 C -919.8053588867188 3703.308837890625 -918.7587280273438 3703.9365234375 -918.2255859375 3704.94677734375 C -917.9472045898438 3705.47412109375 -917.579345703125 3706.565185546875 -918.2428588867188 3707.946044921875 C -918.3847045898438 3708.2412109375 -918.5748901367188 3708.56005859375 -918.8411254882813 3708.94970703125 C -922.3997802734375 3714.15576171875 -922.5045166015625 3717.091064453125 -922.2052001953125 3718.4375 C -920.194580078125 3716.42236328125 -917.156982421875 3713.39208984375 -914.08935546875 3710.385009765625 C -910.9868774414063 3707.343505859375 -908.4567260742188 3704.916259765625 -906.5692138671875 3703.170166015625 C -905.4061889648438 3702.094482421875 -904.5009155273438 3701.2890625 -903.8016357421875 3700.707763671875 C -902.6835327148438 3699.7783203125 -901.7979125976563 3699.120361328125 -900.5800170898438 3699.120361328125 C -899.4114379882813 3699.120361328125 -898.362548828125 3699.7666015625 -897.8426513671875 3700.806884765625 C -897.616455078125 3701.259521484375 -897.3016967773438 3702.191650390625 -897.73583984375 3703.349365234375 C -897.827392578125 3703.59326171875 -897.9462280273438 3703.835205078125 -898.1098022460938 3704.11083984375 C -898.3116455078125 3704.450439453125 -898.5892333984375 3704.853271484375 -898.9833374023438 3705.37841796875 C -900.7302856445313 3707.70654296875 -901.8043212890625 3710.248779296875 -902.1875 3712.955322265625 C -892.5621948242188 3703.856689453125 -876.8844604492188 3688.657470703125 -873.84619140625 3683.99853515625 C -872.9166259765625 3682.5732421875 -871.7679443359375 3682.274169921875 -870.968017578125 3682.274169921875 C -869.992919921875 3682.274169921875 -869.0942993164063 3682.722412109375 -868.5025024414063 3683.50390625 C -867.6873779296875 3684.580322265625 -867.7612915039063 3685.849853515625 -867.9068603515625 3687.057861328125 C -868.0079956054688 3687.897216796875 -868.1972045898438 3689.006591796875 -868.4852905273438 3690.44921875 C -868.9942016601563 3692.99755859375 -869.8220825195313 3696.61669921875 -870.9458618164063 3701.20556640625 C -872.8268432617188 3708.88623046875 -875.5692749023438 3719.427001953125 -879.09716796875 3732.53515625 C -883.0100708007813 3747.07421875 -887.0432739257813 3761.6220703125 -889.3936767578125 3770.047607421875 L -888.0709838867188 3769.24365234375 L -883.0166015625 3766.171142578125 L -883.5238037109375 3772.064453125 C -883.5364990234375 3772.21240234375 -883.8468627929688 3775.752197265625 -884.8211669921875 3781.3076171875 C -885.7168579101563 3786.4150390625 -887.3710327148438 3794.271728515625 -890.1644897460938 3802.6962890625 C -893.3260498046875 3812.231201171875 -897.2755126953125 3820.5419921875 -901.9029541015625 3827.398193359375 C -907.793212890625 3836.12548828125 -914.8102416992188 3842.522705078125 -922.7592163085938 3846.412109375 C -923.246337890625 3846.650390625 -923.65478515625 3846.857666015625 -923.9969482421875 3847.03759765625 C -921.8028564453125 3848.705078125 -918.315185546875 3851.4501953125 -915.2566528320313 3856.51025390625 C -913.5360717773438 3859.356689453125 -912.1344604492188 3862.642822265625 -911.0906372070313 3866.27685546875 C -909.8865356445313 3870.46923828125 -909.1214599609375 3875.2529296875 -908.816650390625 3880.4951171875 L -908.801513671875 3880.7548828125 L -908.8313598632813 3881.01318359375 C -909.5570068359375 3887.29931640625 -909.8558349609375 3892.829345703125 -909.7196044921875 3897.44921875 C -909.6041259765625 3901.361328125 -909.1719970703125 3904.74560546875 -908.43505859375 3907.5078125 C -907.1442260742188 3912.34619140625 -905.1758422851563 3914.560546875 -903.2722778320313 3916.701904296875 C -901.98486328125 3918.150146484375 -900.6536254882813 3919.647705078125 -899.8258056640625 3921.721435546875 C -899.4195556640625 3922.73974609375 -899.5392456054688 3923.89404296875 -900.1456298828125 3924.809326171875 C -901.0838623046875 3926.2255859375 -902.8424072265625 3926.858154296875 -906.8658447265625 3927.2265625 C -907.0092163085938 3927.23974609375 -907.1519165039063 3927.252197265625 -907.29345703125 3927.263916015625 L -898.4675903320313 3963.60546875 L -897.5670776367188 3967.3134765625 L -901.3828735351563 3967.3134765625 L -905.2371826171875 3967.3134765625 C -904.53662109375 3973.455810546875 -902.9038696289063 3987.255615234375 -900.8297729492188 4001.418701171875 C -899.2052612304688 4012.511962890625 -897.6331176757813 4021.646484375 -896.1571655273438 4028.56884765625 C -893.64794921875 4040.336669921875 -892.0574951171875 4042.53955078125 -891.76416015625 4042.861572265625 C -891.2445678710938 4043.43212890625 -890.8657836914063 4043.860107421875 -890.6060180664063 4044.170654296875 C -890.44091796875 4044.367919921875 -890.3177490234375 4044.52490234375 -890.21826171875 4044.6650390625 C -889.2598876953125 4046.013671875 -889.6431274414063 4047.263671875 -889.8524169921875 4047.73876953125 C -890.3319091796875 4048.826904296875 -891.410888671875 4049.531494140625 -892.6010131835938 4049.533935546875 C -892.6031494140625 4049.533935546875 -892.6055908203125 4049.533935546875 -892.6077270507813 4049.533935546875 C -893.83056640625 4049.533935546875 -894.5697021484375 4048.872802734375 -895.3524169921875 4048.173095703125 C -895.7826538085938 4047.788330078125 -896.3585205078125 4047.254150390625 -897.1128540039063 4046.539794921875 C -898.3417358398438 4045.376220703125 -900.0191650390625 4043.757568359375 -902.0986328125 4041.728759765625 C -902.3731689453125 4041.4609375 -902.6475830078125 4041.19287109375 -902.92041015625 4040.926025390625 L -896.133056640625 4090.861572265625 L -901.7421264648438 4092.697265625 L -906.0360717773438 4084.7890625 L -904.082763671875 4113.26318359375 L -903.3448486328125 4124.0205078125 L -909.5326538085938 4115.18994140625 L -914.1385498046875 4108.61669921875 C -914.5454711914063 4114.4912109375 -915.1405639648438 4122.68505859375 -915.822021484375 4130.8212890625 C -916.5704956054688 4139.75830078125 -917.2760620117188 4146.88818359375 -917.9191284179688 4152.0126953125 C -918.3134765625 4155.15478515625 -918.677001953125 4157.5048828125 -919.0304565429688 4159.19580078125 C -919.2431640625 4160.2138671875 -919.4541015625 4160.99462890625 -919.67529296875 4161.58349609375 C -919.8534545898438 4162.05712890625 -920.0535888671875 4162.447265625 -920.2871704101563 4162.7763671875 C -920.9361572265625 4163.69091796875 -921.9161376953125 4164.2158203125 -922.9758911132813 4164.21630859375 C -924.0263061523438 4164.216796875 -924.9931640625 4163.7060546875 -925.62841796875 4162.8154296875 C -925.8729858398438 4162.47265625 -926.0706176757813 4162.0712890625 -926.2327270507813 4161.58837890625 C -926.4288330078125 4161.00390625 -926.58984375 4160.25732421875 -926.7393188476563 4159.2392578125 C -927.8054809570313 4151.9755859375 -929.0903930664063 4147.03173828125 -930.0767822265625 4143.9619140625 L -936.7284545898438 4157.23388671875 L -937.41064453125 4158.59521484375 L -938.9119873046875 4158.84814453125 L -1133.155517578125 4191.57275390625 L -1133.478515625 4191.626953125 Z"/><path class="ab" d="M -870.968017578125 3685.27392578125 C -871.0526123046875 3685.27392578125 -871.173583984375 3685.39208984375 -871.3333740234375 3685.63720703125 C -875.93310546875 3692.69091796875 -904.798583984375 3719.51806640625 -904.798583984375 3719.51806640625 C -904.798583984375 3719.51806640625 -907.365234375 3711.5498046875 -901.3828125 3703.57763671875 C -900.6212158203125 3702.5625 -900.394775390625 3702.1201171875 -900.5799560546875 3702.1201171875 C -901.8489990234375 3702.12158203125 -922.4466552734375 3722.93408203125 -922.4466552734375 3722.93408203125 C -922.4466552734375 3722.93408203125 -929.5975341796875 3719.36962890625 -921.31787109375 3707.2568359375 C -920.877197265625 3706.6123046875 -920.768798828125 3706.30908203125 -920.9569091796875 3706.30908203125 C -923.95458984375 3706.30908203125 -1002.23681640625 3783.309814453125 -1011.337158203125 3783.309814453125 C -1012.39697265625 3783.309814453125 -1012.518676757813 3782.265380859375 -1011.473876953125 3779.93359375 C -1007.491088867188 3771.04443359375 -1012.686645507813 3768.2734375 -1020.717041015625 3768.27392578125 C -1034.017700195313 3768.2744140625 -1055.091552734375 3775.87841796875 -1055.091552734375 3775.87841796875 C -1055.091552734375 3775.87841796875 -1036.642333984375 3754.18310546875 -1037.65966796875 3754.18408203125 C -1037.819213867188 3754.18408203125 -1038.45751953125 3754.7177734375 -1039.720703125 3755.95263671875 C -1049.038940429688 3765.060546875 -1084.73583984375 3775.58935546875 -1088.13720703125 3775.87841796875 C -1088.206176757813 3775.88427734375 -1088.272216796875 3775.88720703125 -1088.336303710938 3775.88720703125 C -1091.43212890625 3775.88720703125 -1088.798095703125 3769.1337890625 -1079.551025390625 3764.75439453125 C -1078.304443359375 3764.1640625 -1078.049194335938 3763.90966796875 -1078.539794921875 3763.90966796875 C -1081.584350585938 3763.91064453125 -1113.343505859375 3773.70654296875 -1114.914672851563 3773.70654296875 C -1115.006958007813 3773.70654296875 -1114.995239257813 3773.672607421875 -1114.8671875 3773.60107421875 C -1112.700805664063 3772.388671875 -1091.53173828125 3752.42041015625 -1093.824340820313 3752.42041015625 C -1094.343994140625 3752.42041015625 -1096.070068359375 3753.44775390625 -1099.496459960938 3755.95263671875 C -1118.035888671875 3769.50732421875 -1175.226806640625 3776.713623046875 -1202.5380859375 3778.724609375 C -1229.849365234375 3780.735595703125 -1218.158203125 3780.0869140625 -1221.838012695313 3780.546875 C -1221.86181640625 3780.5498046875 -1221.884399414063 3780.55126953125 -1221.905883789063 3780.55126953125 C -1224.42822265625 3780.55126953125 -1211.403442382813 3760.27587890625 -1213.235961914063 3760.2783203125 C -1213.804931640625 3760.279296875 -1215.807006835938 3762.2353515625 -1220.151489257813 3767.36083984375 C -1229.9609375 3778.933349609375 -1250.478759765625 3786.966796875 -1259.384765625 3786.966796875 C -1263.782592773438 3786.966796875 -1265.349731445313 3785.007080078125 -1261.396362304688 3780.546875 C -1258.89990234375 3777.73046875 -1258.026977539063 3776.61083984375 -1258.287963867188 3776.61083984375 C -1259.277221679688 3776.611083984375 -1276.56005859375 3792.6982421875 -1283.475341796875 3793.426025390625 C -1298.090698242188 3798.119140625 -1305.787353515625 3805.390869140625 -1308.252319335938 3805.390869140625 C -1308.60595703125 3805.390869140625 -1308.852294921875 3805.240966796875 -1308.99560546875 3804.912109375 C -1310.136962890625 3802.291748046875 -1314.9072265625 3794.039306640625 -1333.153198242188 3782.140380859375 C -1351.399047851563 3770.24169921875 -1353.355224609375 3768.91259765625 -1367.34521484375 3749.88134765625 C -1365.60986328125 3758.33154296875 -1366.261474609375 3760.90283203125 -1367.859008789063 3760.90283203125 C -1369.508056640625 3760.90283203125 -1372.165161132813 3758.16259765625 -1374.244873046875 3756.32080078125 C -1400.112548828125 3733.41015625 -1427.2529296875 3732.01513671875 -1433.482055664063 3732.015625 C -1434.34619140625 3732.015625 -1434.80908203125 3732.04248046875 -1434.80908203125 3732.04248046875 C -1434.80908203125 3732.04248046875 -1419.667846679688 3759.7197265625 -1415.182861328125 3782.846923828125 C -1410.6982421875 3805.973876953125 -1416.869384765625 3824.55126953125 -1416.869384765625 3824.55126953125 C -1416.869384765625 3824.55126953125 -1412.680419921875 3816.37744140625 -1410.557861328125 3816.37744140625 C -1410.080322265625 3816.37744140625 -1409.707153320313 3816.79150390625 -1409.510009765625 3817.80517578125 C -1408.436645507813 3823.32470703125 -1410.32958984375 3843.56396484375 -1410.32958984375 3843.56396484375 C -1410.32958984375 3843.56396484375 -1406.11767578125 3837.361328125 -1404.22119140625 3837.361328125 C -1403.906494140625 3837.361328125 -1403.6552734375 3837.532470703125 -1403.497924804688 3837.930908203125 C -1402.392578125 3840.730712890625 -1402.303466796875 3869.47607421875 -1402.303466796875 3869.47607421875 C -1402.303466796875 3869.47607421875 -1400.4130859375 3865.556884765625 -1398.123901367188 3865.556884765625 C -1396.23876953125 3865.556884765625 -1394.083251953125 3868.21533203125 -1392.490600585938 3877.9091796875 C -1389.85498046875 3886.648681640625 -1395.52783203125 3924.463134765625 -1395.52783203125 3924.463134765625 C -1395.52783203125 3924.463134765625 -1386.851684570313 3913.27880859375 -1385.45361328125 3913.27880859375 C -1385.130126953125 3913.27880859375 -1385.196166992188 3913.878662109375 -1385.849975585938 3915.3544921875 C -1389.328979492188 3923.2080078125 -1399.512817382813 3958.05126953125 -1399.512817382813 3958.05126953125 C -1399.512817382813 3958.05126953125 -1391.88525390625 3949.9072265625 -1389.632568359375 3949.9072265625 C -1389.009765625 3949.9072265625 -1388.797485351563 3950.530029296875 -1389.270751953125 3952.119140625 C -1391.456420898438 3959.45703125 -1411.656494140625 4010.99658203125 -1411.656494140625 4010.99658203125 L -1399.512817382813 3992.750732421875 C -1399.512817382813 3992.750732421875 -1397.205322265625 4000.1787109375 -1399.512817382813 4013.272705078125 C -1401.381713867188 4023.876708984375 -1413.9208984375 4044.384521484375 -1412.431396484375 4044.384521484375 C -1412.081787109375 4044.384521484375 -1410.958740234375 4043.25341796875 -1408.743286132813 4040.598876953125 C -1407.08251953125 4038.60888671875 -1406.0791015625 4037.756103515625 -1405.578979492188 4037.756103515625 C -1402.570068359375 4037.756103515625 -1417.789428710938 4068.647216796875 -1417.789428710938 4068.647216796875 C -1417.789428710938 4068.647216796875 -1412.418334960938 4060.80322265625 -1410.281494140625 4060.80322265625 C -1409.271118164063 4060.80322265625 -1408.983520507813 4062.558837890625 -1410.32958984375 4067.727294921875 C -1414.522338867188 4083.826416015625 -1415.453125 4124.853515625 -1415.453125 4124.853515625 C -1415.453125 4124.853515625 -1412.08447265625 4113.0341796875 -1410.10791015625 4113.0341796875 C -1409.170532226563 4113.0341796875 -1408.5458984375 4115.6953125 -1408.743286132813 4123.53857421875 C -1409.356567382813 4147.9169921875 -1395.52783203125 4162.42724609375 -1395.52783203125 4162.42724609375 C -1395.52783203125 4162.42724609375 -1394.43994140625 4146.501953125 -1393.301391601563 4146.501953125 C -1392.865966796875 4146.501953125 -1392.4228515625 4148.8330078125 -1392.030639648438 4155.27734375 C -1390.75927734375 4176.1669921875 -1364.815185546875 4177.24267578125 -1359.479370117188 4177.24267578125 C -1358.866088867188 4177.24267578125 -1358.524047851563 4177.228515625 -1358.524047851563 4177.228515625 L -1133.653930664063 4188.6142578125 L -939.410400390625 4155.8896484375 L -929.847412109375 4136.80908203125 C -929.847412109375 4136.80908203125 -926.224365234375 4142.0908203125 -923.7711181640625 4158.8037109375 C -923.52685546875 4160.46728515625 -923.260009765625 4161.2158203125 -922.9771728515625 4161.2158203125 C -920.418701171875 4161.2158203125 -916.564697265625 4099.92626953125 -916.564697265625 4099.92626953125 L -907.0758056640625 4113.46826171875 L -909.9716796875 4071.254150390625 L -899.105712890625 4091.265625 L -907.0758056640625 4032.62841796875 C -907.0758056640625 4032.62841796875 -893.0394287109375 4046.533935546875 -892.60693359375 4046.533935546875 C -892.5257568359375 4046.533935546875 -892.92333984375 4046.044189453125 -893.9820556640625 4044.881591796875 C -900.684814453125 4037.522216796875 -908.591796875 3964.3134765625 -908.591796875 3964.3134765625 L -901.3828125 3964.3134765625 L -911.060791015625 3924.463134765625 C -911.060791015625 3924.463134765625 -902.03759765625 3924.273681640625 -902.612060546875 3922.833740234375 C -905.32373046875 3916.04052734375 -915.935546875 3916.394287109375 -911.8115234375 3880.669189453125 C -913.9423828125 3844.024169921875 -937.769287109375 3850.41650390625 -924.0777587890625 3843.71728515625 C -891.322509765625 3827.6904296875 -886.5126953125 3771.80712890625 -886.5126953125 3771.80712890625 L -894.3323974609375 3776.560546875 C -894.3323974609375 3776.560546875 -868.6171875 3685.271484375 -870.968017578125 3685.27392578125 M -870.96826171875 3679.27392578125 C -869.0904541015625 3679.27392578125 -867.2471923828125 3680.193359375 -866.11279296875 3681.68994140625 C -863.9886474609375 3684.4921875 -862.775146484375 3686.09619140625 -885.1263427734375 3765.96923828125 C -884.5078125 3766.1162109375 -883.907470703125 3766.3623046875 -883.349853515625 3766.70849609375 C -881.4290771484375 3767.89990234375 -880.3409423828125 3770.06982421875 -880.5347900390625 3772.32177734375 C -880.7374267578125 3774.67578125 -885.75927734375 3828.728759765625 -918.6231689453125 3847.60986328125 C -913.5726318359375 3852.347412109375 -906.9195556640625 3861.440185546875 -905.8216552734375 3880.32080078125 C -905.801513671875 3880.66650390625 -905.8114013671875 3881.01318359375 -905.85107421875 3881.357177734375 C -908.70458984375 3906.07568359375 -904.2689208984375 3911.0654296875 -901.0301513671875 3914.708740234375 C -899.6390380859375 3916.273681640625 -898.062255859375 3918.04736328125 -897.03955078125 3920.609375 C -896.3099365234375 3922.437255859375 -896.5577392578125 3924.825439453125 -897.644775390625 3926.466064453125 C -898.6746826171875 3928.020751953125 -900.17138671875 3929.1650390625 -903.583984375 3929.826171875 L -895.55224609375 3962.8974609375 C -895.117919921875 3964.68603515625 -895.528564453125 3966.574951171875 -896.666015625 3968.021728515625 C -897.8035888671875 3969.46875 -899.542236328125 3970.3134765625 -901.3828125 3970.3134765625 L -901.8846435546875 3970.3134765625 C -898.250244140625 4001.86328125 -892.73828125 4036.1962890625 -889.4210205078125 4040.99267578125 C -887.8350830078125 4042.72021484375 -885.4920654296875 4045.29296875 -887.1094970703125 4048.953857421875 C -888.0697021484375 4051.126953125 -890.23095703125 4052.533935546875 -892.60693359375 4052.533935546875 C -894.3551025390625 4052.533935546875 -895.0499267578125 4052.533935546875 -898.7801513671875 4049.112060546875 L -893.160400390625 4090.45751953125 C -892.770263671875 4093.327880859375 -894.486572265625 4096.0673828125 -897.2396240234375 4096.9677734375 C -897.8558349609375 4097.169921875 -898.4849853515625 4097.2666015625 -899.1053466796875 4097.2666015625 C -900.2152099609375 4097.2666015625 -901.2979736328125 4096.95703125 -902.2335205078125 4096.38623046875 L -901.08984375 4113.0576171875 C -900.905517578125 4115.74560546875 -902.5355224609375 4118.22705078125 -905.0758056640625 4119.125 C -905.7318115234375 4119.357421875 -906.4073486328125 4119.46875 -907.0745849609375 4119.46875 C -908.833740234375 4119.46875 -910.537841796875 4118.693359375 -911.69287109375 4117.30029296875 C -915.1480712890625 4167.2138671875 -917.120849609375 4167.2158203125 -922.9771728515625 4167.2158203125 C -925.54248046875 4167.2158203125 -928.79248046875 4165.90771484375 -929.70751953125 4159.67529296875 C -930.1087646484375 4156.94189453125 -930.5406494140625 4154.5458984375 -930.97802734375 4152.45556640625 L -934.04638671875 4158.578125 C -934.9039306640625 4160.2890625 -936.5263671875 4161.48828125 -938.4136962890625 4161.806640625 L -1132.657104492188 4194.53076171875 C -1132.986694335938 4194.58642578125 -1133.320190429688 4194.6142578125 -1133.654052734375 4194.6142578125 C -1133.755126953125 4194.6142578125 -1133.856201171875 4194.611328125 -1133.957275390625 4194.6064453125 L -1358.827392578125 4183.220703125 C -1358.8544921875 4183.220703125 -1358.8837890625 4183.220703125 -1358.910888671875 4183.220703125 C -1372.85791015625 4183.220703125 -1387.363037109375 4179.072265625 -1394.145385742188 4168.265625 C -1394.6025390625 4168.3740234375 -1395.066162109375 4168.42724609375 -1395.52685546875 4168.42724609375 C -1397.139892578125 4168.42724609375 -1398.71826171875 4167.7763671875 -1399.871215820313 4166.56640625 C -1400.444702148438 4165.96484375 -1412.664306640625 4152.888671875 -1414.526123046875 4130.7822265625 C -1414.828369140625 4130.82958984375 -1415.136596679688 4130.85400390625 -1415.448364257813 4130.85400390625 C -1415.746704101563 4130.85400390625 -1416.0478515625 4130.83203125 -1416.350830078125 4130.7861328125 C -1419.335571289063 4130.33447265625 -1421.52001953125 4127.7353515625 -1421.45166015625 4124.7177734375 C -1421.41845703125 4123.2587890625 -1420.711669921875 4093.56591796875 -1417.797485351563 4074.647705078125 C -1418.82763671875 4074.647216796875 -1419.869384765625 4074.38134765625 -1420.81787109375 4073.826904296875 C -1423.53515625 4072.238037109375 -1424.562744140625 4068.8193359375 -1423.171752929688 4065.99560546875 C -1420.531005859375 4060.634765625 -1417.730224609375 4054.64013671875 -1415.4970703125 4049.545166015625 C -1416.359375 4049.044921875 -1417.103271484375 4048.341064453125 -1417.63037109375 4047.4873046875 C -1419.649536132813 4044.217529296875 -1418.555908203125 4042.034423828125 -1414.486572265625 4033.912353515625 C -1411.32568359375 4027.60302734375 -1406.578857421875 4018.128173828125 -1405.480590820313 4012.54638671875 L -1406.66162109375 4014.321044921875 C -1407.80908203125 4016.044921875 -1409.709716796875 4016.997314453125 -1411.660400390625 4016.997314453125 C -1412.597900390625 4016.997314453125 -1413.546630859375 4016.77734375 -1414.42919921875 4016.317626953125 C -1417.148193359375 4014.900634765625 -1418.361572265625 4011.661865234375 -1417.24267578125 4008.80712890625 C -1413.431762695313 3999.08349609375 -1405.301635742188 3978.19775390625 -1399.95947265625 3964.03515625 C -1400.827880859375 3963.970703125 -1401.691284179688 3963.71630859375 -1402.486328125 3963.2626953125 C -1404.898681640625 3961.88623046875 -1406.051025390625 3959.033935546875 -1405.27197265625 3956.3681640625 C -1405.011474609375 3955.477294921875 -1401.108642578125 3942.142333984375 -1397.320068359375 3930.189208984375 C -1397.51123046875 3930.129150390625 -1397.700927734375 3930.059326171875 -1397.888305664063 3929.97900390625 C -1400.397827148438 3928.905029296875 -1401.8662109375 3926.272705078125 -1401.46142578125 3923.5732421875 C -1398.830078125 3906.025390625 -1396.848388671875 3884.239501953125 -1398.235107421875 3879.6416015625 C -1398.593872070313 3877.545166015625 -1398.943115234375 3875.912841796875 -1399.260864257813 3874.6474609375 C -1400.172241210938 3875.183349609375 -1401.220947265625 3875.4765625 -1402.3017578125 3875.4765625 C -1402.742065429688 3875.4765625 -1403.187377929688 3875.427978515625 -1403.63134765625 3875.327392578125 C -1406.357055664063 3874.708740234375 -1408.294677734375 3872.289794921875 -1408.303466796875 3869.49462890625 C -1408.324584960938 3862.702392578125 -1408.443725585938 3855.16455078125 -1408.63330078125 3849.319091796875 C -1409.181518554688 3849.480712890625 -1409.753051757813 3849.564453125 -1410.330810546875 3849.564453125 C -1411.007690429688 3849.564453125 -1411.692749023438 3849.449462890625 -1412.35791015625 3849.210693359375 C -1414.93505859375 3848.284912109375 -1416.558349609375 3845.73193359375 -1416.303466796875 3843.00537109375 C -1415.959716796875 3839.325439453125 -1415.6103515625 3834.65625 -1415.392456054688 3830.36328125 C -1415.870849609375 3830.484375 -1416.365478515625 3830.546875 -1416.864990234375 3830.546875 C -1417.63720703125 3830.546875 -1418.421142578125 3830.397216796875 -1419.17529296875 3830.0830078125 C -1422.065063476563 3828.878662109375 -1423.541015625 3825.648193359375 -1422.567626953125 3822.6728515625 C -1422.51123046875 3822.5 -1416.967529296875 3805.162109375 -1421.0732421875 3783.989013671875 C -1425.330810546875 3762.033203125 -1439.925903320313 3735.1904296875 -1440.072875976563 3734.921875 C -1441.057495117188 3733.1220703125 -1441.038818359375 3730.943359375 -1440.048828125 3729.146484375 C -1439.058837890625 3727.34912109375 -1437.203979492188 3726.18212890625 -1435.156494140625 3726.052734375 L -1433.482666015625 3726.015625 C -1425.78955078125 3726.01513671875 -1399.394287109375 3727.73974609375 -1373.310302734375 3749.22900390625 C -1373.082763671875 3747.15087890625 -1371.774780273438 3745.2841796875 -1369.781982421875 3744.3984375 C -1368.995361328125 3744.048828125 -1368.16650390625 3743.880859375 -1367.347534179688 3743.880859375 C -1365.484375 3743.880859375 -1363.670654296875 3744.75 -1362.5107421875 3746.32763671875 C -1349.09033203125 3764.583984375 -1347.639404296875 3765.5302734375 -1329.875732421875 3777.114501953125 C -1316.597900390625 3785.773681640625 -1309.787109375 3792.82861328125 -1306.29736328125 3797.7138671875 C -1302.100341796875 3795.136962890625 -1295.111328125 3790.860595703125 -1285.309814453125 3787.71337890625 C -1284.91748046875 3787.58740234375 -1284.51318359375 3787.502197265625 -1284.103515625 3787.458984375 C -1281.862182617188 3787.10693359375 -1275.88525390625 3782.988525390625 -1266.361938476563 3775.220947265625 C -1261.683471679688 3771.405029296875 -1260.7099609375 3770.61083984375 -1258.288330078125 3770.61083984375 C -1255.927001953125 3770.61083984375 -1253.744873046875 3772.016357421875 -1252.776000976563 3774.169921875 C -1251.814453125 3776.30712890625 -1252.05908203125 3777.982666015625 -1253.133178710938 3779.802734375 C -1244.06787109375 3777.410400390625 -1231.392456054688 3771.343017578125 -1224.728393554688 3763.4814453125 C -1218.499633789063 3756.1328125 -1216.498168945313 3754.28271484375 -1213.244018554688 3754.2783203125 C -1213.241577148438 3754.2783203125 -1213.238891601563 3754.2783203125 -1213.236450195313 3754.2783203125 C -1211.12744140625 3754.2783203125 -1209.034057617188 3755.45849609375 -1207.949829101563 3757.267578125 C -1205.849487304688 3760.77197265625 -1207.25048828125 3763.3837890625 -1211.892578125 3772.0380859375 C -1212.12841796875 3772.477783203125 -1212.388916015625 3772.96337890625 -1212.662109375 3773.47509765625 C -1209.970581054688 3773.255615234375 -1206.775634765625 3773.0205078125 -1202.978637695313 3772.74072265625 C -1171.53125 3770.42529296875 -1118.964477539063 3762.75341796875 -1103.037719726563 3751.10888671875 C -1097.942626953125 3747.38427734375 -1096.04833984375 3746.42041015625 -1093.824340820313 3746.42041015625 C -1091.09375 3746.42041015625 -1088.540161132813 3748.36474609375 -1087.85107421875 3751.0068359375 C -1087.200561523438 3753.50146484375 -1089.513671875 3757.3173828125 -1092.934204101563 3761.33203125 C -1083.21875 3758.58837890625 -1080.215087890625 3757.91015625 -1078.541137695313 3757.90966796875 C -1075.734252929688 3757.9091796875 -1073.069213867188 3759.92138671875 -1072.453247070313 3762.65966796875 C -1072.2900390625 3763.38525390625 -1072.221313476563 3764.20556640625 -1072.365844726563 3765.05859375 C -1061.450073242188 3761.2802734375 -1048.326293945313 3755.9736328125 -1043.91455078125 3751.66162109375 C -1042.0068359375 3749.79736328125 -1040.359252929688 3748.1865234375 -1037.665405273438 3748.18408203125 C -1037.66357421875 3748.18408203125 -1037.66162109375 3748.18408203125 -1037.659790039063 3748.18408203125 C -1035.322021484375 3748.18408203125 -1033.1611328125 3749.5615234375 -1032.178955078125 3751.68359375 C -1030.830444335938 3754.5966796875 -1030.412841796875 3755.50146484375 -1037.788696289063 3764.60498046875 C -1032.041870117188 3763.29443359375 -1025.9033203125 3762.27392578125 -1020.717407226563 3762.2734375 C -1013.481079101563 3762.2734375 -1008.493408203125 3764.30859375 -1005.892822265625 3768.3232421875 C -1005.081298828125 3769.576171875 -1004.544799804688 3770.9375 -1004.283203125 3772.404052734375 C -991.546875 3762.23095703125 -966.326904296875 3738.9755859375 -951.329833984375 3725.146484375 C -924.394287109375 3700.30908203125 -924.26513671875 3700.30908203125 -920.957275390625 3700.30859375 C -918.73193359375 3700.30859375 -916.611572265625 3701.578125 -915.5728759765625 3703.54638671875 C -915.002197265625 3704.62744140625 -914.7720947265625 3705.74755859375 -914.8814697265625 3706.89892578125 C -903.877685546875 3696.125 -902.84912109375 3696.123046875 -900.587646484375 3696.1201171875 C -900.5850830078125 3696.1201171875 -900.58251953125 3696.1201171875 -900.5799560546875 3696.1201171875 C -898.3084716796875 3696.1201171875 -896.177734375 3697.43017578125 -895.1607666015625 3699.4619140625 C -894.8116455078125 3700.1591796875 -894.620849609375 3700.8359375 -894.5467529296875 3701.48193359375 C -886.1943359375 3693.3544921875 -878.266845703125 3685.28515625 -876.3592529296875 3682.35986328125 C -875.2528076171875 3680.6630859375 -872.999755859375 3679.27587890625 -870.97412109375 3679.27392578125 L -870.97412109375 3679.27392578125 C -870.97216796875 3679.27392578125 -870.97021484375 3679.27392578125 -870.96826171875 3679.27392578125 Z"/></g><path class="n" d="M46.195,224.012c-.6.5-1.317,1.141-2.174,1.947-1.976,1.862-3.657,3.653-3.674,3.671l-3.608-2.058c.337-1.154,6.825-23.322,11.15-35.964-1.864,2.269-3.412,4.262-3.428,4.283l-5.012,6.461,1.213-8.086c.014-.094,1.425-9.539,2.5-19.917,1.854-17.97,1.177-23.818.608-25.7l-.04-.133-.022-.137a37.232,37.232,0,0,0-2.223-8.609c-.689-1.54-1.211-1.89-1.32-1.949a3.388,3.388,0,0,0-1.315,1.22,10.346,10.346,0,0,0-.925,1.487l-4.059-.921c0-.07-.023-7.1-.177-14.445-.09-4.3-.207-7.861-.346-10.586-.091-1.78-.183-3.021-.266-3.882-.373.387-.834.9-1.392,1.592-1.078,1.331-1.935,2.589-1.944,2.6l-3.892-1.4c.468-5,1.461-17.975,1.039-23.6a27.726,27.726,0,0,0-1.609,2.353c-1.095,1.76-1.935,3.4-1.943,3.412L19.406,94a71.362,71.362,0,0,0,2.449-11.9,92.926,92.926,0,0,0,.756-12.913,88.539,88.539,0,0,0-1.588-15.81A125.978,125.978,0,0,0,16.152,36c-1.793-5.114-3.968-10.567-6.465-16.206C5.426,10.169,1.657,3.256,1.619,3.187L0,.226,3.369.03C3.422.027,3.919,0,4.82,0A82.886,82.886,0,0,1,27.685,3.65a97.61,97.61,0,0,1,18.086,7.444,102.859,102.859,0,0,1,19.7,13.748c.365.323.732.66,1.122,1.017.83.76,1.688,1.546,2.473,2.152.3.233.551.406.751.533a11.09,11.09,0,0,0,.015-1.531,45.785,45.785,0,0,0-.968-6.581l3.812-1.694c13.835,18.821,15.71,20.044,33.638,31.735,16.566,10.8,22.407,18.813,24.408,22.593.137-.069.3-.153.482-.254.741-.406,1.674-.979,2.753-1.641,2.133-1.31,4.787-2.939,8.136-4.652a79.94,79.94,0,0,1,12.079-5l.21-.067.219-.022c.994-.1,3.5-.87,9.114-4.818,3.822-2.688,7.778-5.914,10.666-8.269,1.179-.962,2.2-1.793,2.957-2.382,1.216-.944,1.836-1.358,2.674-1.358A2.18,2.18,0,0,1,182,45.875,2.242,2.242,0,0,1,182,47.705a3.424,3.424,0,0,1-.289.527c-.154.238-.368.524-.671.9-.529.658-1.357,1.622-2.532,2.949a7.176,7.176,0,0,0-1.7,2.576,5.667,5.667,0,0,0,2.113.292c4.251,0,11.466-2.067,18.382-5.266q1.962-.908,3.815-1.892c-13.309,89.136-76.131,161.492-158.685,186.48C44.024,230.029,45.354,226.423,46.195,224.012Z" transform="translate(0 44.607)"/><g transform="translate(132.496 243.963)"><g transform="translate(0 0)"><g class="o"><rect class="aa" width="73.423" height="124.194" rx="36.711"/><rect class="ac" x="3" y="3" width="67.423" height="118.194" rx="33.711"/></g><circle class="b" cx="16.012" cy="16.012" r="16.012" transform="translate(32.025 24.995)"/><path class="p" d="M-1248.681,4061.474s-4.205,42.608,7.39,66.513,43.438,24.2,43.438,24.2l-15.719,7.979-24.963-7.979-13.733-20.729v-66.076Z" transform="translate(1253.2 -4037.655)"/><g class="q"><rect class="aa" width="73.423" height="124.194" rx="36.711"/><rect class="ac" x="3" y="3" width="67.423" height="118.194" rx="33.711"/></g></g><g transform="translate(205.428 0)"><g class="o" transform="translate(0)"><rect class="aa" width="74.204" height="124.194" rx="37.102"/><rect class="ac" x="3" y="3" width="68.204" height="118.194" rx="34.102"/></g><circle class="b" cx="16.012" cy="16.012" r="16.012" transform="translate(10.154 24.995)"/><path class="p" d="M-1201.44,4061.474s4.205,42.608-7.39,66.513-43.437,24.2-43.437,24.2l15.719,7.979,24.963-7.979,13.733-20.729v-66.076Z" transform="translate(1270.632 -4037.655)"/><g class="q" transform="translate(0)"><rect class="aa" width="74.204" height="124.194" rx="37.102"/><rect class="ac" x="3" y="3" width="68.204" height="118.194" rx="34.102"/></g></g></g><g transform="translate(43.766 64.691)"><path class="r" d="M-1378.229,3809c.259,4.923,9.069,41.2,9.069,41.2s-.259-14.77,2.85-9.328,8.81,41.459,8.81,41.459,50.529-13.215,49.751-26.689-23.062-23.062-23.321-23.062,18.916,24.616,6.737,11.4S-1378.488,3804.075-1378.229,3809Z" transform="translate(1378.23 -3785.449)"/><path class="r" d="M-1301.98,3809.048c-.28,5.325-9.81,44.567-9.81,44.567s.28-15.977-3.083-10.091-9.53,44.848-9.53,44.848-54.658-14.3-53.817-28.871,24.946-24.947,25.227-24.947-20.462,26.628-7.288,12.333S-1301.7,3803.722-1301.98,3809.048Z" transform="translate(1788.144 -3808.401)"/></g></g><g transform="translate(244.644 1097.203)"><path class="s" d="M-1546.019,4797.208c25.031-1.113,41.362-21.025,41.362-21.025s35.6-17.244,51.732-18.356,126.087,15.019,126.087,15.019h82.508s124.716-43.187,138.507-43.944,114.588-10.568,152.97,37.826c9.173,11.566,8.328,45.9,8.328,45.9s-10.128-4.479-9.738-13.438-13.609,76.564-13.609,76.564-6.451,1.145-4.5-9.373-10.128,23.761-12.74,24.391-4.983-12.511-4.983-12.511-76.493,34.057-117.051,21.035c-72.4,10.3-83.007,16.629-85.3,17.528-4.479,1.753,8.2-11.033,8.2-11.033s-38.8,13.586-28.369,5.006-28.91-18.061-28.91-17.8,5.843,6.1,7.985,13.7-28.63-16.36-31.161-12.27-53.477,14.16-55.271,11.365,11.644-19.934,3.894-12.793-62.363,16.815-71.906,13.7-10.975-9.805-10.975-9.805-2.463,11.948-27,16.427,20.255-12.133,1.168-7.527-55.309,2.727-55.309,2.727Z" transform="translate(1600.304 -4716.912)"/><path class="t" d="M-1546.019,4797.208c25.031-1.113,41.362-21.025,41.362-21.025s35.6-17.244,51.732-18.356,126.087,15.019,126.087,15.019h82.508s124.716-43.187,138.507-43.944,114.588-10.568,152.97,37.826c9.173,11.566,8.328,45.9,8.328,45.9s-10.128-4.479-9.738-13.438-13.609,76.564-13.609,76.564-6.451,1.145-4.5-9.373-10.128,23.761-12.74,24.391-4.983-12.511-4.983-12.511-76.493,34.057-117.051,21.035c-72.4,10.3-83.007,16.629-85.3,17.528-4.479,1.753,8.2-11.033,8.2-11.033s-38.8,13.586-28.369,5.006-28.91-18.061-28.91-17.8,5.843,6.1,7.985,13.7-28.63-16.36-31.161-12.27-53.477,14.16-55.271,11.365,11.644-19.934,3.894-12.793-62.363,16.815-71.906,13.7-10.975-9.805-10.975-9.805-2.463,11.948-27,16.427,20.255-12.133,1.168-7.527-55.309,2.727-55.309,2.727Z" transform="translate(1600.304 -4727.589)"/><g transform="matrix(1, 0.017, -0.017, 1, 455.691, 24.944)"><path class="i" d="M33.149,7.338C55.426-2.481,72.833-6.169,96.672,20.52s21.72,92.949,18.535,97.313-25.312,10.161-25.312,10.161L40.155,140.9,0,139.276Z" transform="translate(37.644 7.593) rotate(-1)"/><ellipse class="u" cx="23.846" cy="24.913" rx="23.846" ry="24.913" transform="translate(53.434 24.851)"/><g class="ah" transform="matrix(1, -0.02, 0.02, 1, -3582.47, -730.46)"><path class="i" d="M35.59,0c19.656,0,35.59,30.116,35.59,67.266s-15.934,67.266-35.59,67.266S0,104.416,0,67.266,15.934,0,35.59,0Z" transform="translate(3585.67 803.34) rotate(4)"/></g><g class="ag" transform="matrix(1, -0.02, 0.02, 1, -3582.47, -730.46)"><ellipse class="i" cx="23.846" cy="24.913" rx="23.846" ry="24.913" transform="matrix(1, 0.02, -0.02, 1, 3594.84, 793.32)"/></g><ellipse class="i" cx="23.846" cy="24.913" rx="23.846" ry="24.913" transform="translate(0 25.762)"/><ellipse class="i" cx="23.846" cy="24.913" rx="23.846" ry="24.913" transform="translate(48.452 24.938)"/><ellipse class="r" cx="14.948" cy="42.708" rx="14.948" ry="42.708" transform="matrix(1, -0.017, 0.017, 1, 35.003, 45.169)"/></g><path class="v" d="M-1546.019,4797.208c25.031-1.113,41.362-21.025,41.362-21.025s35.6-17.244,51.732-18.356,126.087,15.019,126.087,15.019h82.508s124.716-43.187,138.507-43.944,114.588-10.568,152.97,37.826c9.173,11.566,8.328,45.9,8.328,45.9s-10.128-4.479-9.738-13.438-13.609,76.564-13.609,76.564-6.451,1.145-4.5-9.373-10.128,23.761-12.74,24.391-4.983-12.511-4.983-12.511-88.6,36-129.159,22.976c-.434.062-70.912,14.694-73.2,15.587-4.479,1.753,8.2-11.033,8.2-11.033s-38.8,13.586-28.369,5.006-28.91-18.061-28.91-17.8,5.843,6.1,7.985,13.7-28.63-16.36-31.161-12.27-53.477,14.16-55.271,11.365,11.644-19.934,3.894-12.793-62.363,16.815-71.906,13.7-10.975-9.805-10.975-9.805-2.463,11.948-27,16.427,20.255-12.133,1.168-7.527-55.309,2.727-55.309,2.727Z" transform="translate(1600.304 -4727.589)"/><path class="i" d="M-1508.162,4811.367c14.77,1.036,27.715,25.171,33.156,38.646,16.843,35.759,15.062,82.694,4.722,84-16.785,2.113-35.193,5.57-47.346,0s-5.815-108.341-6.836-115.2S-1522.155,4821.732-1508.162,4811.367Z" transform="translate(1594.311 -4751.734)"/><path class="u" d="M-1517.667,4817.517s13.959-.481,18.516,12.685,7.6,22.787,8.861,46.586,0,47.6,0,47.6l1.266,2.026s27,3.322,23.369,7.5,5.977.805-1.594,2.59-19.191,2.211-31.249,2.426c-7.935.143-15.709-.865-19.325-3.448C-1526.684,4929.147-1517.667,4817.517-1517.667,4817.517Z" transform="translate(1593.301 -4753.504)"/><g transform="translate(0 36.303)"><ellipse class="i" cx="35.59" cy="70.113" rx="35.59" ry="70.113" transform="translate(2.944 22.17) rotate(-10)"/><ellipse class="i" cx="23.823" cy="24.995" rx="23.823" ry="24.995" transform="translate(17.965 0)"/><ellipse class="i" cx="23.823" cy="24.995" rx="23.823" ry="24.995" transform="translate(0 28.901)"/><ellipse class="i" cx="23.823" cy="24.995" rx="23.823" ry="24.995" transform="translate(42.179 24.995)"/><ellipse class="r" cx="14.948" cy="42.708" rx="14.948" ry="42.708" transform="translate(23.851 55.505) rotate(-10)"/></g></g><g transform="translate(476.182 794.526)"><g class="w" transform="translate(0 -9.512)"><path class="aa" d="M 118.1601791381836 195.5919952392578 C 110.3100814819336 195.5919952392578 102.466178894043 194.9394836425781 94.84634399414063 193.6526489257813 C 87.42561340332031 192.3994293212891 80.12777709960938 190.5299530029297 73.15560913085938 188.0961608886719 C 66.31690979003906 185.7089538574219 59.72287750244141 182.7552947998047 53.55664443969727 179.3172607421875 C 47.45794677734375 175.9168548583984 41.72528076171875 172.0135955810547 36.51787948608398 167.7159271240234 C 31.32094573974609 163.4268951416016 26.60507965087891 158.7102508544922 22.50131225585938 153.6970520019531 C 18.36817932128906 148.6479949951172 14.82001209259033 143.2537841796875 11.95541286468506 137.6642913818359 C 9.044412612915039 131.9842529296875 6.809412479400635 126.0429916381836 5.312445640563965 120.005485534668 C 3.77801251411438 113.8169860839844 3.000012397766113 107.4475860595703 3.000012397766113 101.0742568969727 C 3.000012397766113 92.21475219726563 4.493245601654053 83.44705200195313 7.438212394714355 75.01472473144531 C 10.29901218414307 66.82342529296875 14.51661205291748 58.97615432739258 19.97387886047363 51.69088745117188 C 29.95709800720215 38.36361312866211 43.80734252929688 27.26275825500488 60.23159027099609 19.38183212280273 C 60.77236175537109 20.24153518676758 61.77065658569336 21.10007095336914 63.59098052978516 21.60155487060547 C 65.04491424560547 22.00212097167969 67.03304290771484 22.19682121276855 69.66901397705078 22.19682121276855 C 70.53724670410156 22.19682121276855 71.20431518554688 22.4594554901123 71.97148132324219 23.1033878326416 C 72.87364959716797 23.86062240600586 73.76611328125 25.05052185058594 74.71101379394531 26.31028747558594 C 77.43061065673828 29.93618774414063 81.15521240234375 34.9019889831543 89.34041595458984 34.9019889831543 C 89.54821014404297 34.9019889831543 89.7607421875 34.89872360229492 89.97211456298828 34.89225387573242 C 97.03124237060547 34.67648696899414 105.137580871582 31.75688934326172 113.7198486328125 28.6658878326416 C 121.3135452270508 25.93092155456543 129.1657867431641 23.10285568237305 136.3875427246094 22.17222213745117 C 136.8499145507813 22.11262130737305 137.3007507324219 22.08242225646973 137.7274169921875 22.08242225646973 C 139.4245758056641 22.08242225646973 140.8236083984375 22.53055572509766 142.263671875 23.53545570373535 C 143.6965484619141 24.53535461425781 144.9847106933594 25.96528816223145 146.3485107421875 27.47912216186523 C 149.1890106201172 30.63218879699707 152.4085083007813 34.20595550537109 157.9291839599609 34.87205505371094 C 158.9649505615234 34.99699020385742 160.0845489501953 35.06032180786133 161.2569732666016 35.06032180786133 C 167.0261077880859 35.06032180786133 173.6975402832031 33.52779006958008 179.5836486816406 32.17565536499023 C 184.4399719238281 31.06005477905273 189.0270080566406 30.00635528564453 192.1579132080078 30.00635528564453 C 193.9268798828125 30.00635528564453 194.543212890625 30.35492134094238 194.68994140625 30.46175575256348 C 200.6152801513672 34.77512359619141 206.0166168212891 39.6158561706543 210.7439727783203 44.8496208190918 C 215.4985198974609 50.11338806152344 219.5921173095703 55.79829025268555 222.9111785888672 61.74635696411133 C 226.2852783203125 67.79312133789063 228.8797760009766 74.15105438232422 230.6226806640625 80.6435546875 C 232.4127197265625 87.31179046630859 233.3203430175781 94.18565368652344 233.3203430175781 101.0742568969727 C 233.3203430175781 107.4475860595703 232.5423431396484 113.8169860839844 231.0079193115234 120.005485534668 C 229.5109405517578 126.0429916381836 227.2759399414063 131.9842529296875 224.3649444580078 137.6642913818359 C 221.5003509521484 143.2537841796875 217.9521789550781 148.6479949951172 213.8190460205078 153.6970520019531 C 209.7152862548828 158.7102508544922 204.9994049072266 163.4268951416016 199.8024749755859 167.7159271240234 C 194.5950775146484 172.0135955810547 188.8624114990234 175.9168548583984 182.7637176513672 179.3172607421875 C 176.5974731445313 182.7552947998047 170.0034484863281 185.7089538574219 163.1647491455078 188.0961608886719 C 156.1925811767578 190.5299530029297 148.8947448730469 192.3994293212891 141.4740142822266 193.6526489257813 C 133.8541717529297 194.9394836425781 126.0102767944336 195.5919952392578 118.1601791381836 195.5919952392578 Z"/><path class="ab" d="M 59.60581970214844 23.02769470214844 C 26.36553955078125 39.6827392578125 6 69.07431030273438 6 101.0742340087891 C 6 151.5373077392578 56.31486511230469 192.5919799804688 118.1601791381836 192.5919799804688 C 180.0054931640625 192.5919799804688 230.3203582763672 151.5373077392578 230.3203582763672 101.0742340087891 C 230.3203582763672 75.04069519042969 216.6900329589844 50.18748474121094 193.315673828125 33.10659790039063 C 193.3028259277344 33.10249328613281 192.9910278320313 33.00634765625 192.157958984375 33.00634765625 C 189.3671875 33.00634765625 184.9412536621094 34.02305603027344 180.2554321289063 35.0994873046875 C 174.2139282226563 36.4873046875 167.3663635253906 38.060302734375 161.257080078125 38.060302734375 C 159.9840393066406 38.060302734375 158.75 37.99276733398438 157.56982421875 37.85041809082031 C 150.9324951171875 37.049560546875 146.9948120117188 32.67855834960938 144.1196899414063 29.48698425292969 C 141.3131561279297 26.37159729003906 140.0098114013672 25.14508056640625 137.0095977783203 25.14509582519531 C 136.9312438964844 25.14509582519531 136.8516845703125 25.14593505859375 136.7709655761719 25.14759826660156 C 129.8741149902344 26.03634643554688 122.1785354614258 28.8079833984375 114.7363967895508 31.48837280273438 C 105.9234619140625 34.66244506835938 97.59931945800781 37.6605224609375 89.34036254882813 37.90194702148438 C 79.65521240234375 37.90194702148438 75.23561096191406 32.00949096679688 72.31103515625 28.11033630371094 C 71.550537109375 27.09637451171875 70.27764892578125 25.39930725097656 69.66903686523438 25.19680786132813 C 67.28878784179688 25.19680786132813 62.67460632324219 25.19700622558594 59.60581970214844 23.02769470214844 M 68.55197143554688 12.34077453613281 C 68.55845642089844 12.34077453613281 54.48765563964844 19.19680786132813 69.66903686523438 19.19680786132813 C 77.43231201171875 19.19680786132813 77.28933715820313 31.90196228027344 89.34034729003906 31.90196228027344 C 89.51799011230469 31.90196228027344 89.69746398925781 31.89921569824219 89.88046264648438 31.89363098144531 C 102.5854644775391 31.50531005859375 120.3432846069336 21.21492004394531 136.0041046142578 19.19680786132813 C 136.6059265136719 19.1192626953125 137.1798095703125 19.08242797851563 137.7274169921875 19.08241271972656 C 147.4924468994141 19.08195495605469 149.0807495117188 30.78263854980469 158.28857421875 31.89363098144531 C 159.2384948730469 32.00820922851563 160.2321624755859 32.06031799316406 161.257080078125 32.06031799316406 C 171.363037109375 32.06031799316406 184.6577301025391 27.00637817382813 192.1579132080078 27.00633239746094 C 193.971923828125 27.00631713867188 195.4467926025391 27.30198669433594 196.45556640625 28.03634643554688 C 220.8367919921875 45.78472900390625 236.3203582763672 71.93716430664063 236.3203582763672 101.0742340087891 C 236.3203582763672 154.9318084716797 183.4182434082031 198.5919799804688 118.1601791381836 198.5919799804688 C 52.90211486816406 198.5919799804688 0 154.9318084716797 0 101.0742340087891 C 0 63.53584289550781 25.69993591308594 30.95130920410156 63.48268127441406 14.60284423828125 C 67.25999450683594 12.96839904785156 68.55001831054688 12.34077453613281 68.55197143554688 12.34077453613281 Z"/></g><path class="x" d="M244.463,137c0,53.858-52.9,97.518-118.16,97.518s-98.05-42-98.05-42,43.454,11.453,111.835-4.379S244.463,137,244.463,137Z" transform="translate(-8.142 -45.438)"/><g class="k" transform="translate(0 -9.512)"><path class="aa" d="M69.669,19.2c7.878,0,7.614,13.082,20.211,12.7,12.7-.388,30.463-10.679,46.124-12.7,11.334-1.46,12.56,11.524,22.284,12.7,12.582,1.518,32.564-7.936,38.167-3.857,24.381,17.748,39.865,43.9,39.865,73.038,0,53.858-52.9,97.518-118.16,97.518S0,154.932,0,101.074C0,63.536,25.7,30.951,63.483,14.6,79.748,7.565,49.9,19.2,69.669,19.2Z"/><path class="ab" d="M 59.60581970214844 23.02769470214844 C 26.36553955078125 39.6827392578125 6 69.07431030273438 6 101.0742340087891 C 6 151.5373077392578 56.31486511230469 192.5919799804688 118.1601791381836 192.5919799804688 C 180.0054931640625 192.5919799804688 230.3203582763672 151.5373077392578 230.3203582763672 101.0742340087891 C 230.3203582763672 75.04069519042969 216.6900329589844 50.18748474121094 193.315673828125 33.10659790039063 C 193.3028259277344 33.10249328613281 192.9910278320313 33.00634765625 192.157958984375 33.00634765625 C 189.3671875 33.00634765625 184.9412536621094 34.02305603027344 180.2554321289063 35.0994873046875 C 174.2139282226563 36.4873046875 167.3663635253906 38.060302734375 161.257080078125 38.060302734375 C 159.9840393066406 38.060302734375 158.75 37.99276733398438 157.56982421875 37.85041809082031 C 150.9324951171875 37.049560546875 146.9948120117188 32.67855834960938 144.1196899414063 29.48698425292969 C 141.3131561279297 26.37159729003906 140.0098114013672 25.14508056640625 137.0095977783203 25.14509582519531 C 136.9312438964844 25.14509582519531 136.8516845703125 25.14593505859375 136.7709655761719 25.14759826660156 C 129.8741149902344 26.03634643554688 122.1785354614258 28.8079833984375 114.7363967895508 31.48837280273438 C 105.9234619140625 34.66244506835938 97.59931945800781 37.6605224609375 89.34036254882813 37.90194702148438 C 79.65521240234375 37.90194702148438 75.23561096191406 32.00949096679688 72.31103515625 28.11033630371094 C 71.550537109375 27.09637451171875 70.27764892578125 25.39930725097656 69.66903686523438 25.19680786132813 C 67.28878784179688 25.19680786132813 62.67460632324219 25.19700622558594 59.60581970214844 23.02769470214844 M 68.55197143554688 12.34077453613281 C 68.55845642089844 12.34077453613281 54.48765563964844 19.19680786132813 69.66903686523438 19.19680786132813 C 77.43231201171875 19.19680786132813 77.28933715820313 31.90196228027344 89.34034729003906 31.90196228027344 C 89.51799011230469 31.90196228027344 89.69746398925781 31.89921569824219 89.88046264648438 31.89363098144531 C 102.5854644775391 31.50531005859375 120.3432846069336 21.21492004394531 136.0041046142578 19.19680786132813 C 136.6059265136719 19.1192626953125 137.1798095703125 19.08242797851563 137.7274169921875 19.08241271972656 C 147.4924468994141 19.08195495605469 149.0807495117188 30.78263854980469 158.28857421875 31.89363098144531 C 159.2384948730469 32.00820922851563 160.2321624755859 32.06031799316406 161.257080078125 32.06031799316406 C 171.363037109375 32.06031799316406 184.6577301025391 27.00637817382813 192.1579132080078 27.00633239746094 C 193.971923828125 27.00631713867188 195.4467926025391 27.30198669433594 196.45556640625 28.03634643554688 C 220.8367919921875 45.78472900390625 236.3203582763672 71.93716430664063 236.3203582763672 101.0742340087891 C 236.3203582763672 154.9318084716797 183.4182434082031 198.5919799804688 118.1601791381836 198.5919799804688 C 52.90211486816406 198.5919799804688 0 154.9318084716797 0 101.0742340087891 C 0 63.53584289550781 25.69993591308594 30.95130920410156 63.48268127441406 14.60284423828125 C 67.25999450683594 12.96839904785156 68.55001831054688 12.34077453613281 68.55197143554688 12.34077453613281 Z"/></g><path class="y" d="M54.1,0S36.109,11.415,20.31,35.113,0,73.316,0,73.316" transform="translate(40.217 47.074)"/><path class="y" d="M54.1,0S36.109,11.415,20.31,35.113,0,73.316,0,73.316" transform="translate(67.266 52.768)"/><path class="y" d="M54.1,0S36.109,11.415,20.31,35.113,0,73.316,0,73.316" transform="translate(91.467 60.598)"/><path class="z" d="M-1209,4302.367c-.069-.051,7.432,23.274,30.8,22.417,34.56-.459,42.285-22.417,42.285-22.417s1.591,21.89,28.2,22.417,47-15.185,47-15.185" transform="translate(1271.639 -4302.367)"/></g><g transform="translate(632.848 853.874)"><g class="af" transform="matrix(1, 0, 0, 1, -3501.69, -524.6)"><ellipse class="b" cx="22.261" cy="16.012" rx="22.261" ry="16.012" transform="translate(3543.09 524.6)"/></g><g class="ae" transform="matrix(1, 0, 0, 1, -3501.69, -524.6)"><ellipse class="b" cx="17.575" cy="16.012" rx="17.575" ry="16.012" transform="translate(3516.53 544.13)"/></g><g class="ad" transform="matrix(1, 0, 0, 1, -3501.69, -524.6)"><ellipse class="b" cx="16.403" cy="15.622" rx="16.403" ry="15.622" transform="translate(3501.69 571.47)"/></g><path class="b" d="M839.333,1132.756l27.952,26.675s3.388,4.983,14.152,6.578,19.135,8.372,19.135,8.372,26.111-81.124,30.3-76.141-35.878-40.861-35.878-40.861l-47.24,48.238Z" transform="translate(-822.08 -1056.215)"/><path class="i" d="M21.156,35.584C10.392,33.989,7,29.006,7,29.006L0,22.17C5.654,9.062,17.788,0,31.845,0A32.984,32.984,0,0,1,52.637,7.471C46.076,25.979,40.291,43.955,40.291,43.955S31.919,37.178,21.156,35.584Z" transform="translate(38.201 74.21)"/></g><g transform="translate(182.713 679.788)"><path class="q" d="M-1698.89,4141.174c167.257,5.921,270.128,52.545,270.128,52.545" transform="translate(1706.291 -4141.174)"/><path class="q" d="M-1709.287,4236.4c145.477-31.245,275.308,0,275.308,0" transform="translate(1709.287 -4164.617)"/><path class="q" d="M-1687.108,4289.175c122.616-43.879,272.181-30.741,272.181-30.741" transform="translate(1702.895 -4174.437)"/><path class="q" d="M-833.37,4215.456s112.719-50.1,268.7-51.806" transform="translate(1456.855 -4147.652)"/><path class="q" d="M-829.371,4257.222s148.81-30.06,275.521-1.557" transform="translate(1455.703 -4170.631)"/><path class="q" d="M-836.744,4260.877s157.287-13.215,274.669,29.54" transform="translate(1447.862 -4161.591)"/></g></g></g></svg>
