<?xml version="1.0" encoding="UTF-8"?>
<svg viewBox="0 0 4835 570" xmlns="http://www.w3.org/2000/svg">
<defs>
<style>.a{clip-path:url(#b);}.b,.c,.m,.t{fill:#fff;}.c,.d,.m,.n,.z{stroke-linejoin:round;}.d,.i{fill:#cf8f13;}.e,.h,.l{fill:#ededed;}.e,.n,.o,.q,.t,.v,.z{stroke:#707070;}.e,.n,.o,.q,.t,.v{stroke-width:6px;}.f{fill:#878787;}.g{fill:#e4e4e4;}.h{opacity:0;}.j{fill:#c6c6c6;}.ac,.k,.q,.v,.y,.z{fill:none;}.m,.n{stroke-linecap:square;}.n{fill:#e59d12;}.o{fill:#78a029;}.o,.q,.z{stroke-linecap:round;}.p{fill:#62841f;}.r{fill:#ffafd2;}.s{fill:rgba(112,112,112,0.61);}.u{fill:#845b12;}.w{fill:#fdf581;}.x{fill:#b1a74b;}.y{stroke:#d3ad6c;stroke-width:10px;}.z{stroke-width:11px;}.aa,.ab{stroke:none;}.ab{fill:#707070;}.ad{filter:url(#d);}.ae{filter:url(#f);}.af{filter:url(#g);}.ag{filter:url(#h);}.ah{filter:url(#i);}</style>
<filter id="i" x="3576.3" y="803.34" width="86.393" height="144.17" filterUnits="userSpaceOnUse">
<feOffset dx="6" dy="5" input="SourceAlpha"/>
<feGaussianBlur result="b"/>
<feFlood flood-color="#845b12"/>
<feComposite in2="b" operator="in"/>
<feComposite in="SourceGraphic"/>
</filter>
<filter id="h" x="3594" y="793.32" width="53.553" height="54.651" filterUnits="userSpaceOnUse">
<feOffset dx="5" dy="4" input="SourceAlpha"/>
<feGaussianBlur result="d"/>
<feFlood flood-color="#845b12"/>
<feComposite in2="d" operator="in"/>
<feComposite in="SourceGraphic"/>
</filter>
<filter id="g" x="3538.1" y="524.6" width="49.522" height="34.025" filterUnits="userSpaceOnUse">
<feOffset dx="-5" dy="2" input="SourceAlpha"/>
<feGaussianBlur result="f"/>
<feFlood flood-color="#c6c6c6"/>
<feComposite in2="f" operator="in"/>
<feComposite in="SourceGraphic"/>
</filter>
<filter id="f" x="3512.5" y="544.13" width="39.149" height="34.025" filterUnits="userSpaceOnUse">
<feOffset dx="-4" dy="2" input="SourceAlpha"/>
<feGaussianBlur result="h"/>
<feFlood flood-color="#c6c6c6"/>
<feComposite in2="h" operator="in"/>
<feComposite in="SourceGraphic"/>
</filter>
<filter id="d" x="3498.7" y="571.47" width="35.806" height="32.244" filterUnits="userSpaceOnUse">
<feOffset dx="-3" dy="1" input="SourceAlpha"/>
<feGaussianBlur result="j"/>
<feFlood flood-color="#c6c6c6"/>
<feComposite in2="j" operator="in"/>
<feComposite in="SourceGraphic"/>
</filter>
<clipPath id="b">
<rect width="4835" height="570"/>
</clipPath>
</defs>
<g class="a">
<path class="b" transform="translate(403 394)" d="M215.76-30.38A104.467,104.467,0,0,1,179.8-3.875Q158.41,5.89,130.51,5.89A128.6,128.6,0,0,1,83.545-2.48,110.327,110.327,0,0,1,46.19-26.2,109.828,109.828,0,0,1,21.39-62.93Q12.4-84.32,12.4-110.05q0-26.35,9.145-47.74A106.2,106.2,0,0,1,46.81-194.215a111.9,111.9,0,0,1,37.82-23.1,133.384,133.384,0,0,1,46.81-8.06,132.261,132.261,0,0,1,45.725,8.215q22.475,8.215,36.425,24.025l-35.96,35.96a44.508,44.508,0,0,0-19.53-15.19,64.774,64.774,0,0,0-24.8-4.96,62.809,62.809,0,0,0-25.575,5.115,59.994,59.994,0,0,0-20,14.1,64.257,64.257,0,0,0-13.02,21.235,74.948,74.948,0,0,0-4.65,26.815,77.13,77.13,0,0,0,4.65,27.28A63.524,63.524,0,0,0,87.575-61.535,57.931,57.931,0,0,0,107.26-47.74a62.59,62.59,0,0,0,25.11,4.96q15.81,0,27.59-6.2A53.5,53.5,0,0,0,178.87-65.1ZM424.39-82.77a94.455,94.455,0,0,1-6.665,36.115,78.5,78.5,0,0,1-19.065,27.9A87.921,87.921,0,0,1,368.745-.62q-17.515,6.51-38.9,6.51-21.7,0-39.06-6.51a84.85,84.85,0,0,1-29.45-18.135,78.734,78.734,0,0,1-18.6-27.9,96.439,96.439,0,0,1-6.51-36.115V-219.48h52.7V-87.11a61.228,61.228,0,0,0,2.325,17.05,43.776,43.776,0,0,0,7.13,14.415,33.438,33.438,0,0,0,12.71,10.075q7.9,3.72,19.065,3.72t19.065-3.72A34.789,34.789,0,0,0,362.08-55.645a40.112,40.112,0,0,0,7.13-14.415,65.328,65.328,0,0,0,2.17-17.05V-219.48h53.01ZM467.17,0V-219.48h53.32V0ZM681.69-162.44a47.853,47.853,0,0,0-17.825-13.795,50.289,50.289,0,0,0-21.235-5.115,63.215,63.215,0,0,0-10.7.93,27.611,27.611,0,0,0-9.765,3.565,24.142,24.142,0,0,0-7.285,6.82,18.159,18.159,0,0,0-2.945,10.7,17.246,17.246,0,0,0,2.325,9.3,20.7,20.7,0,0,0,6.82,6.51,60.786,60.786,0,0,0,10.7,5.115q6.2,2.325,13.95,4.805,11.16,3.72,23.25,8.215a86.953,86.953,0,0,1,22.01,11.935,62.65,62.65,0,0,1,16.43,18.445q6.51,11.005,6.51,27.435,0,18.91-6.975,32.705A65.22,65.22,0,0,1,688.2-12.09,80.367,80.367,0,0,1,661.23,1.24a113.408,113.408,0,0,1-31.31,4.34,129.286,129.286,0,0,1-45.57-8.215Q562.34-10.85,547.77-26.04l34.72-35.34A64.156,64.156,0,0,0,603.725-44.8a57.633,57.633,0,0,0,26.2,6.665,52.716,52.716,0,0,0,11.47-1.24,28.612,28.612,0,0,0,9.765-4.03,20.178,20.178,0,0,0,6.665-7.44A23.42,23.42,0,0,0,660.3-62a17.658,17.658,0,0,0-3.1-10.54,30.284,30.284,0,0,0-8.835-7.905,71.161,71.161,0,0,0-14.26-6.51Q625.58-89.9,614.73-93.31a185.157,185.157,0,0,1-20.615-8.06,69,69,0,0,1-17.98-11.935,55.275,55.275,0,0,1-12.71-17.67q-4.8-10.385-4.8-25.265,0-18.29,7.44-31.31a64.674,64.674,0,0,1,19.53-21.39,83.9,83.9,0,0,1,27.28-12.245,123.69,123.69,0,0,1,30.69-3.875,113.943,113.943,0,0,1,37.975,6.82,97.775,97.775,0,0,1,33.945,20.15ZM748.96,0V-219.48h53.32V0ZM987.04,0,898.69-143.53h-.93L899,0H847.54V-219.48h60.45L996.03-76.26h.93l-1.24-143.22h51.46V0Zm105.4,0V-219.48H1240v44.64h-96.41v41.54h91.14v42.47h-91.14v45.57h101.99V0Z"/>
<path class="b" transform="matrix(.995 -.105 .105 .995 1714.4 409.23)" d="m211.39-102.53q0 26.784-9.936 46.224a93.186 93.186 0 0 1-26.208 31.968 109.27 109.27 0 0 1-36.72 18.436 148.79 148.79 0 0 1-41.472 5.9h-76.032v-203.9h73.728a182.21 182.21 0 0 1 42.624 5.04 106.98 106.98 0 0 1 37.44 16.7q16.416 11.664 26.5 31.248t10.076 48.384zm-51.264 0q0-17.28-5.616-28.656a48.243 48.243 0 0 0-14.976-18.144 59.907 59.907 0 0 0-21.312-9.648 104.74 104.74 0 0 0-24.624-2.88h-24.48v119.23h23.328a105.89 105.89 0 0 0 25.488-3.024 60.249 60.249 0 0 0 21.6-9.936 49.221 49.221 0 0 0 14.976-18.432q5.616-11.52 5.616-28.512zm83.808 102.53v-203.9h137.09v41.472h-89.568v38.592h84.672v39.456h-84.672v42.336h94.752v42.044z"/>
<path class="b" transform="translate(2154 396)" d="M201.474-12.341A156.146,156.146,0,0,1,166.6.287a182.808,182.808,0,0,1-43.48,4.879A126.169,126.169,0,0,1,78.208-2.583,103.648,103.648,0,0,1,42.907-24.4,99.453,99.453,0,0,1,19.8-58.118q-8.323-19.66-8.323-43.767,0-24.395,8.467-44.2a98.319,98.319,0,0,1,23.39-33.722,103.6,103.6,0,0,1,35.014-21.382,123.488,123.488,0,0,1,43.337-7.462,133.194,133.194,0,0,1,44.772,7.318q20.664,7.319,33.579,19.66l-31,35.3A53.651,53.651,0,0,0,150.1-160a64.228,64.228,0,0,0-26.691-5.31,59.164,59.164,0,0,0-23.821,4.736,57.274,57.274,0,0,0-18.942,13.2,59.922,59.922,0,0,0-12.484,20.09,70.493,70.493,0,0,0-4.449,25.4,79.494,79.494,0,0,0,4.018,25.83,55.587,55.587,0,0,0,11.91,20.234,54.2,54.2,0,0,0,19.516,13.2,69.887,69.887,0,0,0,26.548,4.736,99.465,99.465,0,0,0,16.359-1.292,61,61,0,0,0,14.35-4.162V-80.36H117.67v-39.606h83.8ZM241.654,0V-203.2H378.266v41.328H289.009v38.458h84.378v39.319H289.009V-41.9h94.423V0ZM415.863,0V-203.2H552.475v41.328H463.218v38.458H547.6v39.319H463.218V-41.9h94.423V0ZM714.056,0,638.575-93.562H638V0H590.072V-203.2H638v82.656h.861L711.473-203.2h61.418l-87.535,93.562L778.057,0Z"/>
<g transform="translate(2868.8 -329.27)">
<g transform="translate(896.82 499.75)">
<g class="c" transform="translate(706.06 -3904.2)">
<path class="aa" d="m-709.72 4549.8 0.69159-5.5586 19.525-156.92 0.18774-1.5083 1.3273-0.74072 91.412-51.021-53.853-297.27-0.34375-1.8977 1.5836-1.1006c0.2663-0.18506 6.7148-4.6343 23.592-13.539 9.8573-5.2009 21.266-10.86 33.91-16.822 15.788-7.4436 33.561-15.383 52.827-23.599 19.334-8.2441 39.189-15.44 59.016-21.387 15.867-4.7593 31.752-8.7346 47.215-11.816 13.772-2.7441 24.66-4.2573 31.368-5.0435 7.3095-0.85645 11.312-1.0583 11.478-1.0664l0.77332-0.037842 78.673 38.604-44.397 116.57-0.98108 0.52979c-0.1683 0.09082-17.025 9.1948-33.742 18.213-24.399 13.163-31.408 16.926-33.518 18.041-1.8217 2.9219-9.4409 15.317-20.39 35.516-7.3717 13.6-14.788 28.023-22.043 42.871-9.0681 18.558-17.908 37.833-26.275 57.291-8.315 19.337-15.363 38.073-20.949 55.687-4.4679 14.088-8.0154 27.495-10.544 39.846-2.2493 10.986-3.259 19.086-3.7099 23.947-0.48846 5.2651-0.4447 7.9673-0.44427 7.9941l0.042053 1.9941-1.8229 0.80713-82.947 36.866-4.2231 66.161-0.10986 1.7212-1.5425 0.771-91.786 45.893z"/>
<path class="ab" d="m-389.64 3943.5s-63.735 3.123-148.05 39.075c-84.312 35.953-109.79 53.663-109.79 53.663l54.235 299.38-93.284 52.065-19.525 156.92 86.776-43.387 4.3388-67.974 84.606-37.604s-0.90735-43.142 35.891-128.72c36.798-85.578 69.352-136.77 69.352-136.77 0.62024-0.25391 67.946-36.615 67.946-36.615l43.027-112.97-75.522-37.058m-1.2207e-4 -6c0.9151 0 1.8194 0.20947 2.6432 0.61328l75.522 37.058c2.7826 1.3657 4.0671 4.626 2.964 7.5225l-43.027 112.97c-0.51196 1.3442-1.4901 2.46-2.7558 3.1436-48.131 25.995-62.265 33.593-66.554 35.871-5.2688 8.5303-35.128 57.964-68.084 134.61-35.685 82.987-35.411 125.81-35.404 126.24 0.03949 2.4067-1.3627 4.6177-3.5621 5.5952l-81.287 36.128-4.1074 64.349c-0.13611 2.1318-1.3945 4.0298-3.3046 4.9844l-86.776 43.388c-0.84821 0.42383-1.7673 0.6333-2.6826 0.6333-1.2197 0-2.4327-0.37158-3.4647-1.1011-1.8062-1.2773-2.7632-3.4443-2.4901-5.6396l19.525-156.92c0.23596-1.8965 1.3612-3.5674 3.0299-4.4985l89.54-49.976-53.471-295.16c-0.41888-2.312 0.55035-4.6558 2.4797-5.9966 1.061-0.73779 26.952-18.473 110.86-54.255 84.33-35.96 147.46-39.419 150.11-39.549 0.0979-0.0048828 0.1958-0.0073242 0.29352-0.0073242z"/>
</g>
<g class="d" transform="translate(609.85 -3888.2)">
<path class="aa" d="m-315.3 4109.6 3.5873-7.0112 33.297-65.082-90.26 20.135 79.16-72.814-82.307 11.505-1.9614-5.542 87.239-52.465-29.923-5.2041-0.44186-5.7993c47.631-16.011 85.161-27.661 111.55-34.627 18.649-4.9231 31.378-7.4192 37.834-7.4192 1.4178 0 2.5422 0.11987 3.4372 0.36646 1.1225 0.30933 1.9751 0.85303 2.5341 1.616 0.37143 0.50684 0.59444 1.0935 0.65683 1.6899l11.115 45.443 0.51604 2.1099-41.453 25.841 52.189-5.5352 2.7326-0.29004 0.52791 2.697 15.141 77.349 0.51324 2.6218-79.807 25.47-108.53 42.098-7.343 2.8481z"/>
<path class="ab" d="m-167.53 3888.2c-9.0357 0-40.338 5.5562-148.43 41.89l37.852 6.583-94.135 56.613 91.831-12.836-78.007 71.753 85.578-19.09-36.206 70.766 108.62-42.131 77.349-24.686-15.141-77.349-65.171 6.9121 50.688-31.598-11.191-45.751s0.34033-1.0764-3.6385-1.0764m0-5.9998c2.8122 0 6.3074 0.36475 8.3914 3.209 0.51022 0.69678 0.87457 1.5496 1.0677 2.4434l0.0076599-0.001709 11.191 45.751c0.61581 2.5176-0.45462 5.146-2.6541 6.5173l-28.531 17.786 39.207-4.1584c0.21426-0.022705 0.42734-0.033936 0.63843-0.033936 2.836 0 5.3266 2.0071 5.8827 4.8479l15.141 77.349c0.58511 2.9893-1.1623 5.9424-4.064 6.8687l-77.349 24.686-108.27 42.009c-0.70569 0.27393-1.4406 0.40625-2.1685 0.40625-1.6662 0-3.2959-0.69434-4.4565-1.9814-1.6676-1.8486-2.0203-4.5352-0.88629-6.7515l30.389-59.396-73.113 16.31c-0.43634 0.097412-0.8746 0.14453-1.3078 0.14453-2.1973 0-4.2657-1.2114-5.3162-3.2214-1.2575-2.4062-0.74255-5.3569 1.2557-7.1951l63.852-58.733-72.783 10.174c-0.27972 0.039307-0.55838 0.05835-0.83432 0.05835-2.5095 0-4.7954-1.5769-5.6525-3.9985-0.95135-2.688 0.12045-5.6743 2.5639-7.1438l80.342-48.318-21.994-3.825c-2.7053-0.4707-4.746-2.7175-4.9546-5.4556s1.4681-5.2681 4.0709-6.1431c82.134-27.61 134.12-42.203 150.34-42.203z"/>
</g>
</g>
<g transform="translate(293.48 800.52)">
<path class="e" transform="translate(1530.2 -4310.8)" d="m-1471.8 4650.4s-1.212-62.774 0-56.719 13.663 13.663 13.663 13.663l-9.082-19.061s-2.021-9.769 11.929-26.483 155.42-212.91 155.42-212.91l337.59-38.143 22.772 38.143s30.457 64.1 33.019 139.48-22.771 162.04-22.771 162.04l-300.01 26.947z"/>
<g transform="translate(229.24 202.54)">
<ellipse class="f" transform="translate(35.149)" cx="13.279" cy="12.888" rx="13.279" ry="12.888"/>
<ellipse class="f" transform="translate(16.403 37.493)" cx="12.888" cy="13.279" rx="12.888" ry="13.279"/>
<ellipse class="f" transform="translate(0 78.891)" cx="12.888" cy="13.279" rx="12.888" ry="13.279"/>
</g>
<path class="f" transform="translate(-440.98 -992.83)" d="m694.69 1332.5c-2.276 7.062 22.914-86.4 74.576-159.79s132.64-131.5 132.64-131.5 128.66-25.048 104.75-17.078-70.591 59.774-70.591 59.774l-105.89 78.561s4.75 15.847 4.351 23.023c-1.026 2.8-27.506 24.118-65.264 63.982-35.393 38.665-73.364 79.271-74.576 83.028z"/>
<g transform="translate(0 16.238)">
<g class="g" transform="translate(156.52) rotate(40)">
<path class="aa" d="m58.72 240.5c-4.1459 0-8.2246-1.0886-12.123-3.2356-3.711-2.0439-7.3571-5.0936-10.837-9.0642-6.2881-7.1751-12.086-17.347-17.233-30.233-5.2495-13.143-8.6923-26.347-10.656-35.109-2.203-9.8295-3.7937-19.654-4.2553-26.281-0.89446-12.842-0.64782-26.598-0.28343-35.876 0.39593-10.081 1.0128-17.203 1.019-17.274l0.011393-0.13036v-0.13097c0-3.167 0.36811-6.81 1.094-10.828 0.72346-4.0041 1.7853-8.2852 3.1558-12.725 2.837-9.1891 6.7894-18.434 11.43-26.736 4.9894-8.926 10.582-16.354 16.173-21.482 2.9737-2.7273 5.9593-4.8224 8.8739-6.2271 2.9781-1.4354 5.9186-2.1633 8.7398-2.1633 6.5912 0 13.57 0.87971 20.182 2.544 6.8881 1.7339 13.38 4.3296 18.774 7.5066 8.5113 5.0132 18.657 13.979 18.657 28.225v0.017357l2.1362e-4 0.017357 1.7012 146.98c-8.0872e-4 7.291-0.55615 12.947-1.7476 17.799-1.3367 5.4438-3.5305 9.9908-6.7066 13.901-3.488 4.2939-8.2192 7.9249-14.464 11.101-6.7179 3.4162-15.084 6.2625-25.577 8.7013-2.0007 0.46503-3.9956 0.70082-5.929 0.70082z"/>
<path class="ab" d="m53.83 6c-21.851 0-46.466 50.337-46.489 77.684-0.024506 0.28003-2.4304 28.287-0.73142 52.68 2.0048 28.784 20.45 101.13 52.111 101.13 1.7051 0 3.4714-0.20956 5.2498-0.62296 42.862-9.9625 46.175-26.426 46.175-48.526l-1.7018-147.07c0-24.064-32.589-35.276-54.613-35.276m0-6c27.125 0 60.613 14.15 60.613 41.276l1.7014 147c0 27.125-7.3963 44.348-50.816 54.44-2.2659 0.52664-4.4716 0.7787-6.6082 0.7787-38.807 0-56.436-82.881-58.096-106.71-1.7514-25.146 0.73977-53.62 0.73977-53.62 0-27.125 25.341-83.161 52.466-83.161z"/>
</g>
<g class="h" transform="translate(156.52) rotate(40)">
<path class="aa" d="m58.72 240.5c-4.1459 0-8.2246-1.0886-12.123-3.2356-3.711-2.0439-7.3571-5.0936-10.837-9.0642-6.2881-7.1751-12.086-17.347-17.233-30.233-5.2495-13.143-8.6923-26.347-10.656-35.109-2.203-9.8295-3.7937-19.654-4.2553-26.281-0.89446-12.842-0.64782-26.598-0.28343-35.876 0.39593-10.081 1.0128-17.203 1.019-17.274l0.011393-0.13036v-0.13097c0-3.167 0.36811-6.81 1.094-10.828 0.72346-4.0041 1.7853-8.2852 3.1558-12.725 2.837-9.1891 6.7894-18.434 11.43-26.736 4.9894-8.926 10.582-16.354 16.173-21.482 2.9737-2.7273 5.9593-4.8224 8.8739-6.2271 2.9781-1.4354 5.9186-2.1633 8.7398-2.1633 6.5912 0 13.57 0.87971 20.182 2.544 6.8881 1.7339 13.38 4.3296 18.774 7.5066 8.5113 5.0132 18.657 13.979 18.657 28.225v0.017357l2.1362e-4 0.017357 1.7012 146.98c-8.0872e-4 7.291-0.55615 12.947-1.7476 17.799-1.3367 5.4438-3.5305 9.9908-6.7066 13.901-3.488 4.2939-8.2192 7.9249-14.464 11.101-6.7179 3.4162-15.084 6.2625-25.577 8.7013-2.0007 0.46503-3.9956 0.70082-5.929 0.70082z"/>
<path class="ab" d="m53.83 6c-21.851 0-46.466 50.337-46.489 77.684-0.024506 0.28003-2.4304 28.287-0.73142 52.68 2.0048 28.784 20.45 101.13 52.111 101.13 1.7051 0 3.4714-0.20956 5.2498-0.62296 42.862-9.9625 46.175-26.426 46.175-48.526l-1.7018-147.07c0-24.064-32.589-35.276-54.613-35.276m0-6c27.125 0 60.613 14.15 60.613 41.276l1.7014 147c0 27.125-7.3963 44.348-50.816 54.44-2.2659 0.52664-4.4716 0.7787-6.6082 0.7787-38.807 0-56.436-82.881-58.096-106.71-1.7514-25.146 0.73977-53.62 0.73977-53.62 0-27.125 25.341-83.161 52.466-83.161z"/>
</g>
<path class="b" transform="translate(-384.27 -1016.5)" d="m498.48 1072.3s-5.384 10.85 13.339 66.237 24.072 47.071 24.072 47.071l66.543-65.777 5.826-22.539-13.953-30.665-22.079-18.4h-18.857l-32.352 11.193z"/>
<path class="i" transform="translate(-397.51 -1028.4)" d="m613.14 1122.4s-12.737-5.988-36.317-10.134-47.935 44.772-52.381 54.979 21.726 44.051 21.726 44.051l60.195-68.764 9.169-17.54z"/>
<path class="j" transform="translate(-357.21 -1027.5)" d="m403.84 1247.4s64.262-15.029 64.78-43.532c0.267-14.707-4.364-36.107-7.145-57.955-2.578-20.244 3.331-42.227 4.368-56.737 4.612-11.531 5.438 17.9 9.515 31.516 6.737 29.021 10.753 42.042 18.657 64.521s12.956 25.394 12.956 25.394l-35.24 44.309-21.507 10.106-31.872-5.96z"/>
<g class="k" transform="translate(156.52) rotate(40)">
<path class="aa" d="M53.83,0c27.125,0,60.613,14.15,60.613,41.276l1.7,147c0,27.125-7.4,44.348-50.816,54.44S2.375,161.927.624,136.781s.74-53.62.74-53.62C1.364,56.036,26.7,0,53.83,0Z"/>
<path class="ab" d="m53.83 6c-21.851 0-46.466 50.337-46.489 77.684-0.024506 0.28003-2.4304 28.287-0.73142 52.68 2.0048 28.784 20.45 101.13 52.111 101.13 1.7051 0 3.4714-0.20956 5.2498-0.62296 42.862-9.9625 46.175-26.426 46.175-48.526l-1.7018-147.07c0-24.064-32.589-35.276-54.613-35.276m0-6c27.125 0 60.613 14.15 60.613 41.276l1.7014 147c0 27.125-7.3963 44.348-50.816 54.44-2.2659 0.52664-4.4716 0.7787-6.6082 0.7787-38.807 0-56.436-82.881-58.096-106.71-1.7514-25.146 0.73977-53.62 0.73977-53.62 0-27.125 25.341-83.161 52.466-83.161z"/>
</g>
<path class="j" transform="translate(1500.8 -4381.9)" d="m-1284.7 4520.2c50.529-13.733-16.318-18.939-16.318-18.939l-69.185 84.473s2.843 5.206 13.986 2.1 16.325-15.288 16.325-15.288 4.66-38.608 55.192-52.346z"/>
</g>
<path class="j" transform="translate(-509.53 -997.2)" d="m948.32 1113.4c53.223-7.748 68.3-5.137 90.277 13.137 12.572 10.453 14.074 29.867 10.6 43.881a41.1 41.1 0 0 1-9.095 17s-11.612 22.327-53.718 20.306-75.112-37.3-75.112-37.3-10.071-6.828-10.779-12.127c-1.906-14.245 8.495-39.172 47.827-44.897z"/>
<path class="l" transform="translate(-505 -1017.8)" d="m953.04 1113.4c53.223-7.748 68.3-5.137 90.277 13.137s-2.358 59.96-2.358 59.96-7.748 23.243-49.854 21.222-70.4-19.538-70.4-19.538-20.888-67.029 32.335-74.781z"/>
</g>
<g transform="translate(374.6 355.27)">
<g class="m" transform="translate(1438.3 -3685.3)">
<path class="aa" d="m-1133.5 4191.6-0.32715-0.016602-224.74-11.379c-0.17383 0.0048828-0.48999 0.011719-0.92932 0.011719-3.1195 0-11.206-0.32715-18.9-3.3584-6.8103-2.6826-11.635-6.8384-14.293-12.234l-0.32629 4.7783-4.7004-4.9316c-0.15356-0.16113-3.8029-4.0278-7.3424-11.017-2.0626-4.0728-3.679-8.395-4.8038-12.846-1.4053-5.5605-2.0433-11.338-1.8966-17.171 0.0042725-0.17334 0.0081787-0.34277 0.011719-0.50928-0.50342 1.5542-0.83301 2.7061-0.83752 2.7222l-5.8843-0.89062c0.0024414-0.10352 0.2428-10.456 0.99451-22.643 0.97717-15.843 2.3292-27.393 4.021-34.36-1.0714 1.3855-1.8685 2.5459-1.8776 2.5593l-5.1661-3.0215c0.031006-0.062744 3.1327-6.3652 6.2086-13.164 1.1823-2.613 2.2075-4.9597 3.0643-7.0129-0.37158 0.15063-0.77502 0.23975-1.2207 0.24023h-0.003418c-1.0868 0-2.0754-0.55005-2.6453-1.4719-0.83887-1.3569-0.34863-2.7954-0.16406-3.3369 0.16931-0.49683 0.42249-1.1094 0.79663-1.9275 0.6405-1.4004 1.5667-3.249 2.639-5.3896 3.2999-6.5864 8.2866-16.54 9.3381-22.507 0.83752-4.7524 1.0243-8.6836 0.96887-11.603l-7.6606 11.51-5.2906-2.7568c0.17236-0.4397 14.803-37.783 20.369-53.06-1.776 1.697-3.2277 3.2437-3.2429 3.26l-5.0688-2.8926c0.29956-1.0247 5.4452-18.606 9.6339-31.418-0.24988 0.31812-0.39404 0.50391-0.39905 0.51025l-7.0408 9.0752 1.7036-11.359c0.01416-0.093994 1.423-9.5247 2.4918-19.884 0.62427-6.05 1.0118-11.223 1.1516-15.375 0.21851-6.4863-0.22668-9.0396-0.5116-9.9841l-0.056396-0.18701-0.031616-0.19287c-0.54639-3.3254-1.1852-5.9395-1.8984-7.7695-0.36218-0.92896-0.677-1.4805-0.89697-1.7966-0.44104 0.44922-1.017 1.2617-1.3596 1.9595l0.0045166-0.0095215-5.7021-1.2939c-1.2207e-4 -0.068848-0.023071-6.9763-0.1731-14.241-0.12964-6.2798-0.29944-10.163-0.45386-12.558-0.046387 0.057129-0.093262 0.11523-0.14111 0.17505-1.0022 1.2512-1.7686 2.3772-1.7762 2.3884l-5.4688-1.9646c0.0046387-0.050293 0.47351-5.0889 0.80542-10.723 0.27942-4.7432 0.35193-7.9702 0.3269-10.163-0.068115 0.1084-0.1377 0.22046-0.20886 0.33594-1.0265 1.6672-1.7988 3.1702-1.8065 3.1853l-5.5167-2.3142c0.013672-0.041748 1.4926-4.5784 2.4187-11.789 0.54199-4.2197 0.79175-8.5183 0.74207-12.776-0.061768-5.3042-0.59082-10.56-1.5725-15.623-2.2633-11.671-7.3903-24.622-11.293-33.431-4.246-9.5847-7.9829-16.437-8.0203-16.505l-2.2754-4.1594 4.733-0.27539c0.056274-0.003418 0.57605-0.031982 1.5016-0.031982 3.224 0 11.93 0.35913 23.111 3.6863 6.2668 1.8647 12.406 4.3914 18.247 7.51 7.0425 3.76 13.727 8.4243 19.868 13.863 0.36975 0.32764 0.75769 0.68286 1.1327 1.0261 0.59229 0.54248 1.2004 1.0991 1.7789 1.5872-0.080688-1.2651-0.32727-3.2219-0.93958-6.2036l5.3557-2.3804c6.9437 9.4458 10.775 14.342 15.125 18.383 4.3785 4.0686 9.3193 7.2905 18.289 13.14 8.0457 5.2468 14.454 10.406 19.048 15.332 2.6058 2.7947 4.2257 5.0835 5.2308 6.8174 0.7384-0.42017 1.6437-0.97607 2.4401-1.4651 4.3376-2.6636 10.893-6.6887 20.403-9.7424l0.29504-0.094727 0.30811-0.032227c0.73303-0.077148 3.0486-0.68628 8.7064-4.6646 3.797-2.6697 7.7388-5.8848 10.617-8.2322 1.1833-0.96533 2.2053-1.7988 2.974-2.3955 1.2296-0.95459 2.0421-1.5396 3.2041-1.5396 1.1973 0 2.2869 0.70264 2.7761 1.7898 0.31946 0.71021 0.5166 1.8391-0.35876 3.1838-0.17065 0.26221-0.39978 0.5708-0.72144 0.97119-0.53735 0.66919-1.3745 1.6445-2.5592 2.9812-0.51746 0.5835-0.85986 1.0449-1.0859 1.3936 0.23145 0.021973 0.51294 0.036377 0.85229 0.036377 4.1351 0 11.208-2.0356 18.018-5.186 8.0643-3.7305 14.786-8.4751 18.926-13.36 2.1686-2.5583 3.8127-4.4001 5.0266-5.6304 1.6437-1.6663 2.7411-2.5122 4.1775-2.5122 1.125 0 2.1395 0.57324 2.714 1.5332 0.85327 1.426 0.31323 2.9353 0.08252 3.5796-0.21338 0.59619-0.54297 1.3521-1.0076 2.3105-0.80481 1.6606-1.9152 3.7305-3.0908 5.9219-1.1276 2.1021-2.2936 4.2756-3.2023 6.1177-0.024292 0.049072-0.048096 0.097656-0.071655 0.14551 2.9338-0.24658 7.8719-0.62524 15.053-1.1541 6.572-0.48389 29.923-2.4197 54.479-7.0139 23.069-4.3159 39.326-9.5679 47.013-15.188 1.7402-1.2722 3.0887-2.2004 4.1224-2.8376 1.5056-0.92798 2.4055-1.2729 3.3203-1.2729 0.59692 0 1.1755 0.15991 1.6731 0.46313 0.69507 0.4231 1.1913 1.0911 1.3971 1.8804 0.22571 0.86548 0.080811 1.7708-0.43066 2.6904-0.19287 0.34692-0.45593 0.73608-0.80457 1.1902-0.5415 0.70532-1.2998 1.5842-2.318 2.6865-2.1671 2.3462-4.9698 5.1133-6.9395 7.0215-0.7218 0.69946-1.4611 1.4084-2.201 2.1118 0.401-0.11572 0.80054-0.23096 1.1963-0.34521 4.7355-1.3667 10.103-2.9158 14.42-4.0974 7.1204-1.949 8.4945-2.1121 9.2919-2.1121 1.8087 0 2.8901 1.21 3.1598 2.4089 0.1134 0.50439 0.33252 2.2456-1.6091 3.4692-0.3158 0.19897-0.7218 0.41431-1.278 0.67773-3.2759 1.5513-5.3 3.2651-6.4215 4.4297-0.049316 0.05127-0.097412 0.10205-0.14441 0.1521 1.0192-0.27417 2.25-0.62061 3.6926-1.0469 4.5073-1.3323 9.5177-2.9832 14.108-4.6482 12.695-4.6052 21.65-9.0605 25.215-12.545 0.67212-0.65698 1.1937-1.1423 1.5944-1.4841 0.49939-0.42603 1.3352-1.1389 2.5636-1.1389 1.1814 0 2.2644 0.69116 2.7589 1.761 0.45349 0.9812 0.3645 2.0317-0.26477 3.1223-0.15894 0.27563-0.36914 0.59668-0.6615 1.0105-0.46606 0.65918-1.1277 1.5342-2.0228 2.6748-1.4508 1.8486-3.4929 4.3643-6.0695 7.4771-0.73462 0.88721-1.4723 1.7744-2.1909 2.6357 0.77966-0.2251 1.5897-0.45361 2.4246-0.68262 9.4568-2.594 17.184-3.9094 22.969-3.9094 2.7483 0 5.0115 0.29053 6.9191 0.88794 2.4395 0.76416 4.252 2.0403 5.3875 3.7932 1.4291 2.2061 1.6833 4.9702 0.76398 8.2439 1.1132-0.74463 2.5253-1.7502 4.3057-3.1077 4.0037-3.0522 9.3066-7.448 15.762-13.065 12.017-10.458 25.943-23.299 38.229-34.629 7.189-6.6292 13.398-12.354 18.1-16.564 2.5198-2.2554 4.4149-3.9026 5.7935-5.0354 2.2729-1.8677 3.2418-2.4893 4.4993-2.4893 1.1516 0 2.1982 0.62769 2.7313 1.6379 0.27838 0.52734 0.64624 1.6184-0.017273 2.9993-0.14185 0.29517-0.33203 0.61401-0.59827 1.0037-3.5587 5.2061-3.6634 8.1414-3.3641 9.4878 2.0106-2.0151 5.0482-5.0454 8.1158-8.0525 3.1025-3.0415 5.6326-5.4688 7.5201-7.2148 1.163-1.0757 2.0683-1.8811 2.7676-2.4624 1.1181-0.92944 2.0037-1.5874 3.2216-1.5874 1.1686 0 2.2175 0.64624 2.7374 1.6865 0.2262 0.45264 0.54095 1.3848 0.10681 2.5425-0.091553 0.2439-0.21039 0.48584-0.37396 0.76147-0.20184 0.3396-0.47943 0.74243-0.87354 1.2676-1.7469 2.3281-2.821 4.8704-3.2042 7.5769 9.6253-9.0986 25.303-24.298 28.341-28.957 0.92957-1.4253 2.0782-1.7244 2.8782-1.7244 0.9751 0 1.8737 0.44824 2.4655 1.2297 0.81512 1.0764 0.74121 2.3459 0.59564 3.554-0.10114 0.83936-0.29034 1.9487-0.57843 3.3914-0.50891 2.5483-1.3368 6.1675-2.4606 10.756-1.881 7.6807-4.6234 18.221-8.1513 31.33-3.9129 14.539-7.9461 29.087-10.297 37.512l1.3227-0.80396 5.0544-3.0725-0.5072 5.8933c-0.012695 0.14795-0.32306 3.6877-1.2974 9.2432-0.89569 5.1074-2.5499 12.964-5.3433 21.389-3.1616 9.5349-7.111 17.846-11.738 24.702-5.8903 8.7273-12.907 15.125-20.856 19.014-0.48712 0.23828-0.89557 0.44556-1.2377 0.62549 2.1941 1.6675 5.6818 4.4126 8.7403 9.4727 1.7206 2.8464 3.1222 6.1326 4.166 9.7666 1.2041 4.1924 1.9692 8.9761 2.274 14.218l0.015137 0.25977-0.029846 0.2583c-0.72565 6.2861-1.0245 11.816-0.88824 16.436 0.11548 3.9121 0.54761 7.2964 1.2845 10.059 1.2908 4.8384 3.2592 7.0527 5.1628 9.1941 1.2874 1.4482 2.6187 2.9458 3.4465 5.0195 0.40625 1.0183 0.28656 2.1726-0.31982 3.0879-0.93823 1.4163-2.6968 2.0488-6.7202 2.4172-0.14337 0.013184-0.28607 0.025635-0.42761 0.037354l8.8259 36.342 0.90051 3.708h-3.8158-3.8543c0.70056 6.1423 2.3333 19.942 4.4074 34.105 1.6245 11.093 3.1967 20.228 4.6726 27.15 2.5092 11.768 4.0997 13.971 4.393 14.293 0.51959 0.57056 0.89838 0.99854 1.1581 1.3091 0.1651 0.19727 0.28827 0.35425 0.38776 0.49438 0.95837 1.3486 0.57513 2.5986 0.36584 3.0737-0.47949 1.0881-1.5585 1.7927-2.7486 1.7952h-0.0067139c-1.2228 0-1.962-0.66113-2.7447-1.3608-0.43024-0.38477-1.0061-0.91895-1.7604-1.6333-1.2289-1.1636-2.9063-2.7822-4.9858-4.811-0.27454-0.26782-0.54895-0.53589-0.82178-0.80273l6.7874 49.936-5.6091 1.8357-4.2939-7.9082 1.9533 28.474 0.73792 10.757-6.1878-8.8306-4.6059-6.5732c-0.40692 5.8745-1.002 14.068-1.6835 22.205-0.74847 8.937-1.454 16.067-2.0971 21.191-0.39435 3.1421-0.75787 5.4922-1.1113 7.1831-0.21271 1.0181-0.42365 1.7988-0.64484 2.3877-0.17816 0.47363-0.3783 0.86377-0.61188 1.1929-0.64899 0.91455-1.629 1.4395-2.6887 1.4399-1.0504 4.8828e-4 -2.0173-0.51025-2.6525-1.4009-0.24457-0.34277-0.4422-0.74414-0.60431-1.2271-0.19611-0.58447-0.35712-1.3311-0.50659-2.3491-1.0662-7.2637-2.3511-12.208-3.3375-15.277l-6.6517 13.272-0.68219 1.3613-195.74 32.978-0.323 0.054199z"/>
<path class="ab" d="m-870.97 3685.3c-0.084595 0-0.20557 0.11816-0.36536 0.36328-4.5997 7.0537-33.465 33.881-33.465 33.881s-2.5667-7.9683 3.4158-15.94c0.7616-1.0151 0.98804-1.4575 0.80286-1.4575-1.269 0.0014648-21.867 20.814-21.867 20.814s-7.1509-3.5645 1.1288-15.677c0.44067-0.64453 0.54907-0.94775 0.36096-0.94775-2.9977 0-81.28 77.001-90.38 77.001-1.0598 0-1.1815-1.0444-0.13672-3.3762 3.9828-8.8892-1.2128-11.66-9.2432-11.66-13.301 4.8828e-4 -34.375 7.6045-34.375 7.6045s18.449-21.695 17.432-21.694c-0.15955 0-0.79785 0.53369-2.061 1.7686-9.3182 9.1079-45.015 19.637-48.417 19.926-0.06897 0.0058594-0.13501 0.0087891-0.1991 0.0087891-3.0958 0-0.46179-6.7534 8.7853-11.133 1.2466-0.59033 1.5018-0.84473 1.0112-0.84473-3.0446 9.7656e-4 -34.804 9.7969-36.375 9.7969-0.092285 0-0.080566-0.033936 0.047485-0.10547 2.1664-1.2124 23.335-21.181 21.043-21.181-0.51965 0-2.2457 1.0273-5.6721 3.5322-18.539 13.555-75.73 20.761-103.04 22.772s-15.62 1.3623-19.3 1.8223c-0.023804 0.0029297-0.046387 0.0043945-0.067871 0.0043945-2.5223 0 10.502-20.275 8.6699-20.273-0.56897 9.7656e-4 -2.571 1.957-6.9155 7.0825-9.8094 11.573-30.327 19.606-39.233 19.606-4.3978 0-5.965-1.9597-2.0116-6.4199 2.4965-2.8164 3.3694-3.936 3.1084-3.936-0.98926 2.4414e-4 -18.272 16.087-25.187 16.815-14.615 4.6931-22.312 11.965-24.777 11.965-0.35364 0-0.59998-0.1499-0.74329-0.47876-1.1414-2.6204-5.9116-10.873-24.158-22.772-18.246-11.899-20.202-13.228-34.192-32.259 1.7354 8.4502 1.0837 11.021-0.51379 11.021-1.649 0-4.3062-2.7402-6.3859-4.582-25.868-22.911-53.008-24.306-59.237-24.305-0.86414 0-1.327 0.026855-1.327 0.026855s15.141 27.677 19.626 50.804c4.4846 23.127-1.6865 41.704-1.6865 41.704s4.189-8.1738 6.3115-8.1738c0.47754 0 0.85071 0.41406 1.0479 1.4277 1.0734 5.5195-0.81958 25.759-0.81958 25.759s4.2119-6.2026 6.1084-6.2026c0.3147 0 0.56592 0.17114 0.72327 0.56958 1.1053 2.7998 1.1945 31.545 1.1945 31.545s1.8904-3.9192 4.1796-3.9192c1.8851 0 4.0406 2.6584 5.6333 12.352 2.6356 8.7395-3.0372 46.554-3.0372 46.554s8.6761-11.184 10.074-11.184c0.32349 0 0.25745 0.59985-0.39636 2.0757-3.479 7.8535-13.663 42.697-13.663 42.697s7.6276-8.144 9.8802-8.144c0.6228 0 0.83508 0.6228 0.36182 2.2119-2.1857 7.3379-22.386 58.877-22.386 58.877l12.144-18.246s2.3075 7.428 0 20.522c-1.8689 10.604-14.408 31.112-12.919 31.112 0.34961 0 1.4727-1.1311 3.6881-3.7856 1.6608-1.99 2.6642-2.8428 3.1643-2.8428 3.0089 0-12.21 30.891-12.21 30.891s5.3711-7.844 7.5079-7.844c1.0104 0 1.298 1.7556-0.048096 6.9241-4.1927 16.099-5.1235 57.126-5.1235 57.126s3.3687-11.819 5.3452-11.819c0.93738 0 1.562 2.6611 1.3646 10.504-0.61328 24.378 13.215 38.889 13.215 38.889s1.0879-15.925 2.2264-15.925c0.43542 0 0.87854 2.3311 1.2708 8.7754 1.2714 20.89 27.215 21.965 32.551 21.965 0.61328 0 0.95532-0.01416 0.95532-0.01416l224.87 11.386 194.24-32.725 9.563-19.081s3.623 5.2817 6.0763 21.995c0.24426 1.6636 0.51111 2.4121 0.79395 2.4121 2.5585 0 6.4125-61.29 6.4125-61.29l9.4889 13.542-2.8959-42.214 10.866 20.011-7.9701-58.637s14.036 13.906 14.469 13.906c0.081177 0-0.31641-0.48975-1.3751-1.6523-6.7028-7.3594-14.61-80.568-14.61-80.568h7.209l-9.678-39.85s9.0232-0.18945 8.4487-1.6294c-2.7117-6.7932-13.323-6.4395-9.1995-42.165-2.1309-36.645-25.958-30.253-12.266-36.952 32.755-16.027 37.565-71.91 37.565-71.91l-7.8197 4.7534s25.715-91.289 23.364-91.287m-2.4414e-4 -6c1.8778 0 3.7211 0.91943 4.8555 2.416 2.1241 2.8022 3.3376 4.4062-19.014 84.279 0.61853 0.14697 1.2189 0.39307 1.7765 0.73926 1.9208 1.1914 3.0089 3.3613 2.8151 5.6133-0.20264 2.354-5.2245 56.407-38.088 75.288 5.0505 4.7375 11.704 13.83 12.802 32.711 0.020142 0.3457 0.010254 0.69238-0.029419 1.0364-2.8535 24.719 1.5822 29.708 4.8209 33.352 1.3911 1.5649 2.9679 3.3386 3.9906 5.9006 0.72961 1.8279 0.48181 4.2161-0.60522 5.8567-1.0299 1.5547-2.5266 2.699-5.9392 3.3601l8.0317 33.071c0.43433 1.7886 0.023682 3.6775-1.1138 5.1243-1.1376 1.447-2.8762 2.2917-4.7168 2.2917h-0.50183c3.6344 31.55 9.1464 65.883 12.464 70.679 1.5859 1.7275 3.929 4.3003 2.3115 7.9612-0.96021 2.1731-3.1215 3.5801-5.4974 3.5801-1.7482 0-2.443 0-6.1732-3.4219l5.6198 41.345c0.39014 2.8704-1.3262 5.6099-4.0792 6.5103-0.61621 0.20215-1.2454 0.29883-1.8657 0.29883-1.1099 0-2.1926-0.30957-3.1282-0.88037l1.1437 16.671c0.18433 2.688-1.4457 5.1694-3.986 6.0674-0.65601 0.23242-1.3315 0.34375-1.9988 0.34375-1.7592 0-3.4633-0.77539-4.6183-2.1685-3.4552 49.914-5.428 49.916-11.284 49.916-2.5653 0-5.8153-1.3081-6.7303-7.5405-0.40125-2.7334-0.83313-5.1294-1.2705-7.2197l-3.0684 6.1226c-0.85754 1.7109-2.48 2.9102-4.3673 3.2285l-194.24 32.724c-0.32959 0.055664-0.66309 0.083496-0.99695 0.083496-0.10107 0-0.20215-0.0029297-0.30322-0.0078125l-224.87-11.386h-0.083496c-13.947 0-28.452-4.1484-35.234-14.955-0.45715 0.1084-0.92078 0.16162-1.3815 0.16162-1.613 0-3.1914-0.65088-4.3444-1.8608-0.57349-0.60156-12.793-13.678-14.655-35.784-0.30225 0.047363-0.61047 0.071777-0.92224 0.071777-0.29834 0-0.59949-0.021973-0.90247-0.067871-2.9847-0.45166-5.1692-3.0508-5.1008-6.0684 0.033203-1.459 0.73999-31.152 3.6542-50.07-1.0302-4.8828e-4 -2.0719-0.26636-3.0204-0.8208-2.7173-1.5889-3.7449-5.0076-2.3539-7.8313 2.6407-5.3608 5.4415-11.355 7.6747-16.45-0.8623-0.50024-1.6062-1.2041-2.1333-2.0579-2.0192-3.2698-0.92554-5.4529 3.1438-13.575 3.1609-6.3093 7.9077-15.784 9.006-21.366l-1.181 1.7747c-1.1475 1.7239-3.0481 2.6763-4.9988 2.6763-0.9375 0-1.8862-0.21997-2.7688-0.67969-2.719-1.417-3.9324-4.6558-2.8135-7.5105 3.8109-9.7236 11.941-30.609 17.283-44.772-0.86841-0.064453-1.7318-0.31885-2.5269-0.77246-2.4124-1.3765-3.5647-4.2288-2.7856-6.8945 0.2605-0.89087 4.1633-14.226 7.9519-26.179-0.19116-0.060059-0.38086-0.12988-0.56824-0.21021-2.5095-1.074-3.9779-3.7063-3.5731-6.4058 2.6313-17.548 4.613-39.334 3.2263-43.932-0.35876-2.0964-0.70801-3.7288-1.0258-4.9941-0.91138 0.53589-1.9601 0.8291-3.0409 0.8291-0.44031 0-0.88562-0.048584-1.3296-0.14917-2.7257-0.61865-4.6633-3.0376-4.6721-5.8328-0.021118-6.7922-0.14026-14.33-0.32983-20.176-0.54822 0.16162-1.1198 0.24536-1.6975 0.24536-0.67688 0-1.3619-0.11499-2.0271-0.35376-2.5771-0.92578-4.2004-3.4788-3.9456-6.2053 0.34375-3.6799 0.69312-8.3491 0.91101-12.642-0.47839 0.12109-0.97302 0.18359-1.4725 0.18359-0.77222 0-1.5562-0.14966-2.3103-0.46387-2.8898-1.2043-4.3657-4.4348-3.3923-7.4102 0.056396-0.17285 5.6001-17.511 1.4944-38.684-4.2576-21.956-18.853-48.799-19-49.067-0.98462-1.7998-0.96594-3.9785 0.024048-5.7754 0.98999-1.7974 2.8448-2.9644 4.8923-3.0938l1.6738-0.037109c7.6931-4.8828e-4 34.088 1.7241 60.172 23.213 0.22754-2.0781 1.5355-3.9448 3.5283-4.8306 0.78662-0.34961 1.6155-0.51758 2.4344-0.51758 1.8632 0 3.6769 0.86914 4.8368 2.4468 13.42 18.256 14.871 19.203 32.635 30.787 13.278 8.6592 20.089 15.714 23.578 20.599 4.197-2.5769 11.186-6.8533 20.988-10 0.39233-0.12598 0.79663-0.21118 1.2063-0.25439 2.2413-0.35205 8.2183-4.4705 17.742-12.238 4.6785-3.8159 5.652-4.6101 8.0736-4.6101 2.3613 0 4.5435 1.4055 5.5123 3.5591 0.96155 2.1372 0.71692 3.8127-0.35718 5.6328 9.0653-2.3923 21.741-8.4597 28.405-16.321 6.2288-7.3486 8.2302-9.1987 11.484-9.2031h0.0075684c2.109 0 4.2024 1.1802 5.2866 2.9893 2.1003 3.5044 0.69934 6.1162-3.9427 14.771-0.23584 0.4397-0.49634 0.92529-0.76953 1.437 2.6915-0.21948 5.8865-0.45459 9.6835-0.73438 31.447-2.3154 84.014-9.9873 99.941-21.632 5.0951-3.7246 6.9894-4.6885 9.2134-4.6885 2.7306 0 5.2842 1.9443 5.9733 4.5864 0.65051 2.4946-1.6626 6.3105-5.0831 10.325 9.7155-2.7437 12.719-3.4219 14.393-3.4224 2.8069-4.8828e-4 5.4719 2.0117 6.0879 4.75 0.16321 0.72559 0.23193 1.5459 0.087402 2.3989 10.916-3.7783 24.04-9.085 28.451-13.397 1.9077-1.8643 3.5553-3.4751 6.2491-3.4775h0.0056152c2.3378 0 4.4987 1.3774 5.4808 3.4995 1.3485 2.9131 1.7661 3.8179-5.6097 12.921 5.7468-1.3105 11.885-2.3311 17.071-2.3315 7.2363 0 12.224 2.0352 14.825 6.0498 0.81152 1.2529 1.348 2.6143 1.6096 4.0808 12.736-10.173 37.956-33.428 52.953-47.258 26.936-24.837 27.065-24.837 30.373-24.838 2.2253 0 4.3457 1.2695 5.3844 3.2378 0.57068 1.0811 0.80078 2.2012 0.69141 3.3525 11.004-10.774 12.032-10.776 14.294-10.779h0.0076904c2.2715 0 4.4022 1.3101 5.4192 3.3418 0.34912 0.69727 0.53992 1.374 0.61401 2.02 8.3524-8.1274 16.28-16.197 18.188-19.122 1.1064-1.6968 3.3595-3.084 5.3851-3.0859h0.0058594z"/>
</g>
<path class="n" transform="translate(0 44.607)" d="M46.195,224.012c-.6.5-1.317,1.141-2.174,1.947-1.976,1.862-3.657,3.653-3.674,3.671l-3.608-2.058c.337-1.154,6.825-23.322,11.15-35.964-1.864,2.269-3.412,4.262-3.428,4.283l-5.012,6.461,1.213-8.086c.014-.094,1.425-9.539,2.5-19.917,1.854-17.97,1.177-23.818.608-25.7l-.04-.133-.022-.137a37.232,37.232,0,0,0-2.223-8.609c-.689-1.54-1.211-1.89-1.32-1.949a3.388,3.388,0,0,0-1.315,1.22,10.346,10.346,0,0,0-.925,1.487l-4.059-.921c0-.07-.023-7.1-.177-14.445-.09-4.3-.207-7.861-.346-10.586-.091-1.78-.183-3.021-.266-3.882-.373.387-.834.9-1.392,1.592-1.078,1.331-1.935,2.589-1.944,2.6l-3.892-1.4c.468-5,1.461-17.975,1.039-23.6a27.726,27.726,0,0,0-1.609,2.353c-1.095,1.76-1.935,3.4-1.943,3.412L19.406,94a71.362,71.362,0,0,0,2.449-11.9,92.926,92.926,0,0,0,.756-12.913,88.539,88.539,0,0,0-1.588-15.81A125.978,125.978,0,0,0,16.152,36c-1.793-5.114-3.968-10.567-6.465-16.206C5.426,10.169,1.657,3.256,1.619,3.187L0,.226,3.369.03C3.422.027,3.919,0,4.82,0A82.886,82.886,0,0,1,27.685,3.65a97.61,97.61,0,0,1,18.086,7.444,102.859,102.859,0,0,1,19.7,13.748c.365.323.732.66,1.122,1.017.83.76,1.688,1.546,2.473,2.152.3.233.551.406.751.533a11.09,11.09,0,0,0,.015-1.531,45.785,45.785,0,0,0-.968-6.581l3.812-1.694c13.835,18.821,15.71,20.044,33.638,31.735,16.566,10.8,22.407,18.813,24.408,22.593.137-.069.3-.153.482-.254.741-.406,1.674-.979,2.753-1.641,2.133-1.31,4.787-2.939,8.136-4.652a79.94,79.94,0,0,1,12.079-5l.21-.067.219-.022c.994-.1,3.5-.87,9.114-4.818,3.822-2.688,7.778-5.914,10.666-8.269,1.179-.962,2.2-1.793,2.957-2.382,1.216-.944,1.836-1.358,2.674-1.358A2.18,2.18,0,0,1,182,45.875,2.242,2.242,0,0,1,182,47.705a3.424,3.424,0,0,1-.289.527c-.154.238-.368.524-.671.9-.529.658-1.357,1.622-2.532,2.949a7.176,7.176,0,0,0-1.7,2.576,5.667,5.667,0,0,0,2.113.292c4.251,0,11.466-2.067,18.382-5.266q1.962-.908,3.815-1.892c-13.309,89.136-76.131,161.492-158.685,186.48C44.024,230.029,45.354,226.423,46.195,224.012Z"/>
<g transform="translate(132.5 243.96)">
<g transform="translate(0)">
<g class="o">
<rect class="aa" width="73.423" height="124.19" rx="36.711"/>
<rect class="ac" x="3" y="3" width="67.423" height="118.19" rx="33.711"/>
</g>
<circle class="b" transform="translate(32.025 24.995)" cx="16.012" cy="16.012" r="16.012"/>
<path class="p" transform="translate(1253.2 -4037.7)" d="m-1248.7 4061.5s-4.205 42.608 7.39 66.513 43.438 24.2 43.438 24.2l-15.719 7.979-24.963-7.979-13.733-20.729v-66.076z"/>
<g class="q">
<rect class="aa" width="73.423" height="124.19" rx="36.711"/>
<rect class="ac" x="3" y="3" width="67.423" height="118.19" rx="33.711"/>
</g>
</g>
<g transform="translate(205.43)">
<g class="o" transform="translate(0)">
<rect class="aa" width="74.204" height="124.19" rx="37.102"/>
<rect class="ac" x="3" y="3" width="68.204" height="118.19" rx="34.102"/>
</g>
<circle class="b" transform="translate(10.154 24.995)" cx="16.012" cy="16.012" r="16.012"/>
<path class="p" transform="translate(1270.6 -4037.7)" d="m-1201.4 4061.5s4.205 42.608-7.39 66.513-43.437 24.2-43.437 24.2l15.719 7.979 24.963-7.979 13.733-20.729v-66.076z"/>
<g class="q" transform="translate(0)">
<rect class="aa" width="74.204" height="124.19" rx="37.102"/>
<rect class="ac" x="3" y="3" width="68.204" height="118.19" rx="34.102"/>
</g>
</g>
</g>
<g transform="translate(43.766 64.691)">
<path class="r" transform="translate(1378.2 -3785.4)" d="m-1378.2 3809c0.259 4.923 9.069 41.2 9.069 41.2s-0.259-14.77 2.85-9.328 8.81 41.459 8.81 41.459 50.529-13.215 49.751-26.689-23.062-23.062-23.321-23.062 18.916 24.616 6.737 11.4-54.155-39.905-53.896-34.98z"/>
<path class="r" transform="translate(1788.1 -3808.4)" d="m-1302 3809c-0.28 5.325-9.81 44.567-9.81 44.567s0.28-15.977-3.083-10.091-9.53 44.848-9.53 44.848-54.658-14.3-53.817-28.871 24.946-24.947 25.227-24.947-20.462 26.628-7.288 12.333 58.581-43.165 58.301-37.839z"/>
</g>
</g>
<g transform="translate(244.64 1097.2)">
<path class="s" transform="translate(1600.3 -4716.9)" d="m-1546 4797.2c25.031-1.113 41.362-21.025 41.362-21.025s35.6-17.244 51.732-18.356 126.09 15.019 126.09 15.019h82.508s124.72-43.187 138.51-43.944 114.59-10.568 152.97 37.826c9.173 11.566 8.328 45.9 8.328 45.9s-10.128-4.479-9.738-13.438-13.609 76.564-13.609 76.564-6.451 1.145-4.5-9.373-10.128 23.761-12.74 24.391-4.983-12.511-4.983-12.511-76.493 34.057-117.05 21.035c-72.4 10.3-83.007 16.629-85.3 17.528-4.479 1.753 8.2-11.033 8.2-11.033s-38.8 13.586-28.369 5.006-28.91-18.061-28.91-17.8 5.843 6.1 7.985 13.7-28.63-16.36-31.161-12.27-53.477 14.16-55.271 11.365 11.644-19.934 3.894-12.793-62.363 16.815-71.906 13.7-10.975-9.805-10.975-9.805-2.463 11.948-27 16.427 20.255-12.133 1.168-7.527-55.309 2.727-55.309 2.727z"/>
<path class="t" transform="translate(1600.3 -4727.6)" d="m-1546 4797.2c25.031-1.113 41.362-21.025 41.362-21.025s35.6-17.244 51.732-18.356 126.09 15.019 126.09 15.019h82.508s124.72-43.187 138.51-43.944 114.59-10.568 152.97 37.826c9.173 11.566 8.328 45.9 8.328 45.9s-10.128-4.479-9.738-13.438-13.609 76.564-13.609 76.564-6.451 1.145-4.5-9.373-10.128 23.761-12.74 24.391-4.983-12.511-4.983-12.511-76.493 34.057-117.05 21.035c-72.4 10.3-83.007 16.629-85.3 17.528-4.479 1.753 8.2-11.033 8.2-11.033s-38.8 13.586-28.369 5.006-28.91-18.061-28.91-17.8 5.843 6.1 7.985 13.7-28.63-16.36-31.161-12.27-53.477 14.16-55.271 11.365 11.644-19.934 3.894-12.793-62.363 16.815-71.906 13.7-10.975-9.805-10.975-9.805-2.463 11.948-27 16.427 20.255-12.133 1.168-7.527-55.309 2.727-55.309 2.727z"/>
<g transform="matrix(1 .017 -.017 1 455.69 24.944)">
<path class="i" transform="translate(37.644 7.593) rotate(-1)" d="M33.149,7.338C55.426-2.481,72.833-6.169,96.672,20.52s21.72,92.949,18.535,97.313-25.312,10.161-25.312,10.161L40.155,140.9,0,139.276Z"/>
<ellipse class="u" transform="translate(53.434 24.851)" cx="23.846" cy="24.913" rx="23.846" ry="24.913"/>
<g class="ah" transform="matrix(1 -.02 .02 1 -3582.5 -730.46)">
<path class="i" transform="translate(3585.7 803.34) rotate(4)" d="M35.59,0c19.656,0,35.59,30.116,35.59,67.266s-15.934,67.266-35.59,67.266S0,104.416,0,67.266,15.934,0,35.59,0Z"/>
</g>
<g class="ag" transform="matrix(1 -.02 .02 1 -3582.5 -730.46)">
<ellipse class="i" transform="matrix(1 .02 -.02 1 3594.8 793.32)" cx="23.846" cy="24.913" rx="23.846" ry="24.913"/>
</g>
<ellipse class="i" transform="translate(0 25.762)" cx="23.846" cy="24.913" rx="23.846" ry="24.913"/>
<ellipse class="i" transform="translate(48.452 24.938)" cx="23.846" cy="24.913" rx="23.846" ry="24.913"/>
<ellipse class="r" transform="matrix(1 -.017 .017 1 35.003 45.169)" cx="14.948" cy="42.708" rx="14.948" ry="42.708"/>
</g>
<path class="v" transform="translate(1600.3 -4727.6)" d="m-1546 4797.2c25.031-1.113 41.362-21.025 41.362-21.025s35.6-17.244 51.732-18.356 126.09 15.019 126.09 15.019h82.508s124.72-43.187 138.51-43.944 114.59-10.568 152.97 37.826c9.173 11.566 8.328 45.9 8.328 45.9s-10.128-4.479-9.738-13.438-13.609 76.564-13.609 76.564-6.451 1.145-4.5-9.373-10.128 23.761-12.74 24.391-4.983-12.511-4.983-12.511-88.6 36-129.16 22.976c-0.434 0.062-70.912 14.694-73.2 15.587-4.479 1.753 8.2-11.033 8.2-11.033s-38.8 13.586-28.369 5.006-28.91-18.061-28.91-17.8 5.843 6.1 7.985 13.7-28.63-16.36-31.161-12.27-53.477 14.16-55.271 11.365 11.644-19.934 3.894-12.793-62.363 16.815-71.906 13.7-10.975-9.805-10.975-9.805-2.463 11.948-27 16.427 20.255-12.133 1.168-7.527-55.309 2.727-55.309 2.727z"/>
<path class="i" transform="translate(1594.3 -4751.7)" d="m-1508.2 4811.4c14.77 1.036 27.715 25.171 33.156 38.646 16.843 35.759 15.062 82.694 4.722 84-16.785 2.113-35.193 5.57-47.346 0s-5.815-108.34-6.836-115.2 2.311 2.919 16.304-7.446z"/>
<path class="u" transform="translate(1593.3 -4753.5)" d="m-1517.7 4817.5s13.959-0.481 18.516 12.685 7.6 22.787 8.861 46.586 0 47.6 0 47.6l1.266 2.026s27 3.322 23.369 7.5 5.977 0.805-1.594 2.59-19.191 2.211-31.249 2.426c-7.935 0.143-15.709-0.865-19.325-3.448-8.861-6.335 0.156-117.96 0.156-117.96z"/>
<g transform="translate(0 36.303)">
<ellipse class="i" transform="translate(2.944 22.17) rotate(-10)" cx="35.59" cy="70.113" rx="35.59" ry="70.113"/>
<ellipse class="i" transform="translate(17.965)" cx="23.823" cy="24.995" rx="23.823" ry="24.995"/>
<ellipse class="i" transform="translate(0 28.901)" cx="23.823" cy="24.995" rx="23.823" ry="24.995"/>
<ellipse class="i" transform="translate(42.179 24.995)" cx="23.823" cy="24.995" rx="23.823" ry="24.995"/>
<ellipse class="r" transform="translate(23.851 55.505) rotate(-10)" cx="14.948" cy="42.708" rx="14.948" ry="42.708"/>
</g>
</g>
<g transform="translate(476.18 794.53)">
<g class="w" transform="translate(0 -9.512)">
<path class="aa" d="m118.16 195.59c-7.8501 0-15.694-0.65251-23.314-1.9393-7.4207-1.2532-14.719-3.1227-21.691-5.5565-6.8387-2.3872-13.433-5.3409-19.599-8.7789-6.0987-3.4004-11.831-7.3037-17.039-11.601-5.1969-4.289-9.9128-9.0057-14.017-14.019-4.1331-5.0491-7.6813-10.443-10.546-16.033-2.911-5.68-5.146-11.621-6.643-17.659-1.5344-6.1885-2.3124-12.558-2.3124-18.931 0-8.8595 1.4932-17.627 4.4382-26.06 2.8608-8.1913 7.0784-16.039 12.536-23.324 9.9832-13.327 23.833-24.428 40.258-32.309 0.54077 0.8597 1.5391 1.7182 3.3594 2.2197 1.4539 0.40057 3.4421 0.59527 6.078 0.59527 0.86823 0 1.5353 0.26263 2.3025 0.90657 0.90217 0.75723 1.7946 1.9471 2.7395 3.2069 2.7196 3.6259 6.4442 8.5917 14.629 8.5917 0.20779 0 0.42033-0.0032654 0.6317-0.0097351 7.0591-0.21577 15.165-3.1354 23.748-6.2264 7.5937-2.735 15.446-5.563 22.668-6.4937 0.46237-0.059601 0.91321-0.0898 1.3399-0.0898 1.6972 0 3.0962 0.44813 4.5363 1.453 1.4329 0.9999 2.721 2.4298 4.0848 3.9437 2.8405 3.1531 6.06 6.7268 11.581 7.3929 1.0358 0.12494 2.1554 0.18827 3.3278 0.18827 5.7691 0 12.441-1.5325 18.327-2.8847 4.8563-1.1156 9.4434-2.1693 12.574-2.1693 1.769 0 2.3853 0.34857 2.532 0.4554 5.9253 4.3134 11.327 9.1541 16.054 14.388 4.7545 5.2638 8.8481 10.949 12.167 16.897 3.3741 6.0468 5.9686 12.405 7.7115 18.897 1.79 6.6682 2.6977 13.542 2.6977 20.431 0 6.3733-0.778 12.743-2.3124 18.931-1.497 6.0375-3.732 11.979-6.643 17.659-2.8646 5.5895-6.4128 10.984-10.546 16.033-4.1038 5.0132-8.8196 9.7298-14.017 14.019-5.2074 4.2977-10.94 8.2009-17.039 11.601-6.1662 3.438-12.76 6.3917-19.599 8.7789-6.9722 2.4338-14.27 4.3033-21.691 5.5565-7.6198 1.2868-15.464 1.9393-23.314 1.9393z"/>
<path class="ab" d="m59.606 23.028c-33.24 16.655-53.606 46.047-53.606 78.047 0 50.463 50.315 91.518 112.16 91.518 61.845 0 112.16-41.055 112.16-91.518 0-26.034-13.63-50.887-37.005-67.968-0.012848-0.0041046-0.32465-0.10025-1.1577-0.10025-2.7908 0-7.2167 1.0167-11.903 2.0931-6.0415 1.3878-12.889 2.9608-18.998 2.9608-1.273 0-2.5071-0.067535-3.6873-0.20988-6.6373-0.80086-10.575-5.1719-13.45-8.3634-2.8065-3.1154-4.1099-4.3419-7.1101-4.3419-0.078354 0-0.15791 8.3923e-4 -0.23863 0.0025024-6.8969 0.88875-14.592 3.6604-22.035 6.3408-8.8129 3.1741-17.137 6.1721-25.396 6.4136-9.6852 0-14.105-5.8925-17.029-9.7916-0.7605-1.014-2.0334-2.711-2.642-2.9135-2.3802 0-6.9944 1.9836e-4 -10.063-2.1691m8.9462-10.687c0.006485 0-14.064 6.856 1.1171 6.856 7.7633 0 7.6203 12.705 19.671 12.705 0.17764 0 0.35712-0.0027466 0.54012-0.0083313 12.705-0.38832 30.463-10.679 46.124-12.697 0.60182-0.077545 1.1757-0.11438 1.7233-0.1144 9.765-4.5776e-4 11.353 11.7 20.561 12.811 0.94992 0.11458 1.9436 0.16669 2.9685 0.16669 10.106 0 23.401-5.0539 30.901-5.054 1.814-1.5259e-5 3.2889 0.29565 4.2977 1.03 24.381 17.748 39.865 43.901 39.865 73.038 0 53.858-52.902 97.518-118.16 97.518-65.258 0-118.16-43.66-118.16-97.518 0-37.538 25.7-70.123 63.483-86.471 3.7773-1.6344 5.0673-2.2621 5.0693-2.2621z"/>
</g>
<path class="x" transform="translate(-8.142 -45.438)" d="M244.463,137c0,53.858-52.9,97.518-118.16,97.518s-98.05-42-98.05-42,43.454,11.453,111.835-4.379S244.463,137,244.463,137Z"/>
<g class="k" transform="translate(0 -9.512)">
<path class="aa" d="M69.669,19.2c7.878,0,7.614,13.082,20.211,12.7,12.7-.388,30.463-10.679,46.124-12.7,11.334-1.46,12.56,11.524,22.284,12.7,12.582,1.518,32.564-7.936,38.167-3.857,24.381,17.748,39.865,43.9,39.865,73.038,0,53.858-52.9,97.518-118.16,97.518S0,154.932,0,101.074C0,63.536,25.7,30.951,63.483,14.6,79.748,7.565,49.9,19.2,69.669,19.2Z"/>
<path class="ab" d="m59.606 23.028c-33.24 16.655-53.606 46.047-53.606 78.047 0 50.463 50.315 91.518 112.16 91.518 61.845 0 112.16-41.055 112.16-91.518 0-26.034-13.63-50.887-37.005-67.968-0.012848-0.0041046-0.32465-0.10025-1.1577-0.10025-2.7908 0-7.2167 1.0167-11.903 2.0931-6.0415 1.3878-12.889 2.9608-18.998 2.9608-1.273 0-2.5071-0.067535-3.6873-0.20988-6.6373-0.80086-10.575-5.1719-13.45-8.3634-2.8065-3.1154-4.1099-4.3419-7.1101-4.3419-0.078354 0-0.15791 8.3923e-4 -0.23863 0.0025024-6.8969 0.88875-14.592 3.6604-22.035 6.3408-8.8129 3.1741-17.137 6.1721-25.396 6.4136-9.6852 0-14.105-5.8925-17.029-9.7916-0.7605-1.014-2.0334-2.711-2.642-2.9135-2.3802 0-6.9944 1.9836e-4 -10.063-2.1691m8.9462-10.687c0.006485 0-14.064 6.856 1.1171 6.856 7.7633 0 7.6203 12.705 19.671 12.705 0.17764 0 0.35712-0.0027466 0.54012-0.0083313 12.705-0.38832 30.463-10.679 46.124-12.697 0.60182-0.077545 1.1757-0.11438 1.7233-0.1144 9.765-4.5776e-4 11.353 11.7 20.561 12.811 0.94992 0.11458 1.9436 0.16669 2.9685 0.16669 10.106 0 23.401-5.0539 30.901-5.054 1.814-1.5259e-5 3.2889 0.29565 4.2977 1.03 24.381 17.748 39.865 43.901 39.865 73.038 0 53.858-52.902 97.518-118.16 97.518-65.258 0-118.16-43.66-118.16-97.518 0-37.538 25.7-70.123 63.483-86.471 3.7773-1.6344 5.0673-2.2621 5.0693-2.2621z"/>
</g>
<path class="y" transform="translate(40.217 47.074)" d="M54.1,0S36.109,11.415,20.31,35.113,0,73.316,0,73.316"/>
<path class="y" transform="translate(67.266 52.768)" d="M54.1,0S36.109,11.415,20.31,35.113,0,73.316,0,73.316"/>
<path class="y" transform="translate(91.467 60.598)" d="M54.1,0S36.109,11.415,20.31,35.113,0,73.316,0,73.316"/>
<path class="z" transform="translate(1271.6 -4302.4)" d="M-1209,4302.367c-.069-.051,7.432,23.274,30.8,22.417,34.56-.459,42.285-22.417,42.285-22.417s1.591,21.89,28.2,22.417,47-15.185,47-15.185"/>
</g>
<g transform="translate(632.85 853.87)">
<g class="af" transform="translate(-3501.7 -524.6)">
<ellipse class="b" transform="translate(3543.1 524.6)" cx="22.261" cy="16.012" rx="22.261" ry="16.012"/>
</g>
<g class="ae" transform="translate(-3501.7 -524.6)">
<ellipse class="b" transform="translate(3516.5 544.13)" cx="17.575" cy="16.012" rx="17.575" ry="16.012"/>
</g>
<g class="ad" transform="translate(-3501.7 -524.6)">
<ellipse class="b" transform="translate(3501.7 571.47)" cx="16.403" cy="15.622" rx="16.403" ry="15.622"/>
</g>
<path class="b" transform="translate(-822.08 -1056.2)" d="m839.33 1132.8 27.952 26.675s3.388 4.983 14.152 6.578 19.135 8.372 19.135 8.372 26.111-81.124 30.3-76.141-35.878-40.861-35.878-40.861l-47.24 48.238z"/>
<path class="i" transform="translate(38.201 74.21)" d="M21.156,35.584C10.392,33.989,7,29.006,7,29.006L0,22.17C5.654,9.062,17.788,0,31.845,0A32.984,32.984,0,0,1,52.637,7.471C46.076,25.979,40.291,43.955,40.291,43.955S31.919,37.178,21.156,35.584Z"/>
</g>
<g transform="translate(182.71 679.79)">
<path class="q" transform="translate(1706.3 -4141.2)" d="m-1698.9 4141.2c167.26 5.921 270.13 52.545 270.13 52.545"/>
<path class="q" transform="translate(1709.3 -4164.6)" d="m-1709.3 4236.4c145.48-31.245 275.31 0 275.31 0"/>
<path class="q" transform="translate(1702.9 -4174.4)" d="m-1687.1 4289.2c122.62-43.879 272.18-30.741 272.18-30.741"/>
<path class="q" transform="translate(1456.9 -4147.7)" d="m-833.37 4215.5s112.72-50.1 268.7-51.806"/>
<path class="q" transform="translate(1455.7 -4170.6)" d="m-829.37 4257.2s148.81-30.06 275.52-1.557"/>
<path class="q" transform="translate(1447.9 -4161.6)" d="m-836.74 4260.9s157.29-13.215 274.67 29.54"/>
</g>
</g>
</g>
</svg>
